<svg width="1917" height="1392" viewBox="0 0 1917 1392" fill="none" xmlns="http://www.w3.org/2000/svg">
<path d="M1513.19 0C1533.6 2.93053 1554.01 48.3537 1559.84 65.9368C1574.42 111.36 1565.67 158.248 1548.18 202.206C1532.14 238.838 1513.19 282.796 1485.49 312.101C1485.49 312.101 1485.49 312.101 1482.58 313.566C1457.79 337.011 1422.81 344.337 1389.28 334.08C1389.28 334.08 1389.28 334.08 1387.82 334.08C1387.82 334.08 1379.07 329.684 1374.7 326.754L1368.87 322.358H1367.41C1326.59 303.309 1284.32 288.657 1239.13 278.4L1224.55 275.469C1026.29 234.442 822.196 279.865 661.839 401.482C639.972 417.6 619.563 435.183 600.611 452.766C578.744 473.28 558.335 495.259 539.384 518.703L491.277 577.314L565.624 559.731C600.611 550.939 635.598 546.543 669.128 545.078C679.332 545.078 690.995 545.078 702.657 543.613H704.115H708.488C708.488 543.613 721.608 543.613 731.813 543.613C778.462 543.613 896.544 549.474 976.722 581.709C979.638 581.709 982.554 584.64 985.469 584.64C1007.34 593.432 1027.75 608.084 1043.78 624.202C1048.15 628.598 1052.53 634.459 1056.9 640.32C1103.55 704.792 1094.8 794.173 1036.49 848.387C1033.58 851.318 1030.66 854.248 1026.29 857.179C1007.34 871.832 984.011 883.554 960.687 887.95H957.771L954.855 889.415C946.109 893.811 908.206 901.137 844.063 911.394C809.076 917.255 769.716 923.116 731.813 927.512C693.91 933.373 657.465 939.234 629.767 943.63C626.852 943.63 622.478 943.629 619.563 945.095C613.732 945.095 609.358 946.56 603.527 948.025C603.527 948.025 602.069 948.025 600.611 948.025C529.179 961.213 460.663 984.657 396.52 1018.36C328.004 1052.06 265.319 1097.48 209.922 1150.23C188.056 1170.75 169.104 1191.26 150.153 1213.24L0 1392L186.598 1249.87C259.487 1194.19 339.666 1154.63 425.676 1129.72C494.192 1109.2 567.082 1100.41 638.514 1101.88H639.972C680.79 1100.41 723.066 1104.81 775.547 1110.67C851.352 1119.46 944.651 1131.18 1078.77 1125.32C1113.76 1123.86 1147.28 1120.93 1177.9 1118C1236.21 1110.67 1293.06 1100.41 1345.54 1085.76C1345.54 1085.76 1347 1085.76 1348.46 1085.76C1360.12 1082.83 1368.87 1079.9 1377.62 1076.97C1395.11 1071.11 1409.69 1066.71 1421.35 1062.32C1421.35 1062.32 1424.27 1062.32 1425.72 1060.85H1427.18C1427.18 1060.85 1430.1 1059.39 1431.55 1057.92C1440.3 1054.99 1444.67 1052.06 1444.67 1052.06C1504.44 1025.68 1558.38 989.053 1607.95 943.63C1612.32 939.234 1616.69 936.303 1619.61 931.907C1628.36 923.116 1635.65 914.324 1644.39 905.533C1685.21 860.109 1717.28 808.825 1740.61 753.145C1763.93 700.396 1778.51 643.251 1784.34 586.105C1784.34 586.105 1784.34 583.175 1784.34 581.709C1791.63 511.377 1810.58 441.044 1828.07 372.177C1836.82 337.011 1857.23 297.448 1887.84 276.935L1917 257.886C1917 257.886 1771.22 43.9579 1514.65 0M1790.17 319.427C1782.88 335.545 1777.05 351.663 1772.68 369.246C1765.39 394.156 1759.56 420.531 1755.18 443.975C1744.98 487.933 1737.69 531.891 1733.32 575.848C1733.32 575.848 1733.32 578.779 1733.32 580.244C1727.49 632.994 1714.37 684.278 1693.96 732.632C1673.55 780.985 1644.39 826.408 1609.41 867.436C1600.66 877.693 1591.91 886.484 1583.16 895.276C1578.79 899.672 1575.88 902.602 1571.5 905.533C1527.77 946.56 1478.2 980.261 1422.81 1003.71C1422.81 1003.71 1418.43 1005.17 1411.15 1009.57L1405.31 1012.5H1403.86C1393.65 1016.89 1380.53 1021.29 1363.04 1027.15C1355.75 1028.61 1347 1031.55 1336.8 1034.48H1335.34C1285.77 1049.13 1230.38 1059.39 1173.52 1065.25C1144.37 1068.18 1112.3 1071.11 1077.31 1072.57C947.567 1078.43 855.725 1066.71 782.836 1057.92C730.355 1052.06 685.163 1046.2 639.972 1047.66C562.709 1047.66 486.903 1056.45 412.556 1078.43C397.978 1082.83 381.942 1087.23 367.364 1093.09C384.858 1082.83 402.351 1072.57 419.845 1063.78C479.614 1034.48 542.3 1012.5 606.443 999.31H612.274C616.647 999.31 621.021 997.844 628.31 996.379C631.225 996.379 634.141 996.379 637.056 996.379C664.754 991.983 701.199 986.122 739.102 980.261C777.005 974.4 814.907 968.539 851.352 962.678C922.784 950.956 956.313 945.095 970.891 939.234C1001.5 931.907 1032.12 918.72 1056.9 898.206C1062.73 893.811 1067.11 889.415 1071.48 886.484C1147.28 814.686 1158.95 694.535 1097.72 609.549C1091.89 602.223 1086.06 594.897 1080.23 587.571C1058.36 564.126 1032.12 546.543 1002.96 534.821C1000.05 533.356 995.674 531.891 992.758 530.425C908.206 496.724 791.582 489.398 730.355 489.398C718.693 489.398 711.404 489.398 705.573 489.398H701.199H698.284C686.621 489.398 674.959 489.398 663.297 490.863C654.55 490.863 644.345 490.863 635.598 493.794C632.683 493.794 631.225 493.794 628.31 493.794C629.767 492.328 632.683 490.863 634.141 487.933C651.634 470.349 670.586 455.697 690.995 439.579C844.063 323.823 1039.41 282.796 1227.46 326.754H1234.75C1275.57 338.476 1314.93 351.663 1351.38 369.246C1357.21 372.177 1363.04 376.573 1370.33 378.038H1374.7C1374.7 378.038 1374.7 379.503 1374.7 380.968H1379.07C1428.64 397.086 1482.58 383.899 1520.48 348.733C1521.94 348.733 1523.4 345.802 1524.85 344.337C1533.6 337.011 1542.35 320.893 1555.47 298.914L1559.84 290.122C1565.67 279.865 1572.96 271.074 1580.25 263.747C1584.62 260.817 1587.54 257.886 1590.45 254.956C1590.45 254.956 1594.83 252.025 1602.12 247.629C1602.12 247.629 1603.57 247.629 1605.03 246.164C1616.69 238.838 1635.65 230.046 1660.43 224.185C1720.2 208.067 1778.51 219.789 1830.99 256.421C1825.16 253.491 1791.63 315.032 1788.71 319.427" fill="#E56F61"/>
</svg>
