<svg width="453" height="453" viewBox="0 0 453 453" fill="none" xmlns="http://www.w3.org/2000/svg">
<path d="M453 346.455H0V346.636H453V346.455Z" fill="#EBEBEB"/>
<path d="M407.61 361.041H377.621V361.222H407.61V361.041Z" fill="#EBEBEB"/>
<path d="M300.068 363.487H292.186V363.668H300.068V363.487Z" fill="#EBEBEB"/>
<path d="M376.715 352.615H359.32V352.796H376.715V352.615Z" fill="#EBEBEB"/>
<path d="M86.7037 354.155H47.5645V354.336H86.7037V354.155Z" fill="#EBEBEB"/>
<path d="M100.475 354.155H94.7676V354.336H100.475V354.155Z" fill="#EBEBEB"/>
<path d="M204.031 357.961H119.139V358.142H204.031V357.961Z" fill="#EBEBEB"/>
<path d="M214.722 306.047H39.7736C36.965 306.047 34.6094 303.691 34.6094 300.883V54.9943C34.6094 52.1857 36.965 49.8301 39.7736 49.8301H214.722C217.531 49.8301 219.886 52.1857 219.886 54.9943V300.883C219.886 303.691 217.531 306.047 214.722 306.047ZM39.7736 50.0113C37.0556 50.0113 34.7906 52.1857 34.7906 54.9943V300.883C34.7906 303.601 36.965 305.866 39.7736 305.866H214.722C217.44 305.866 219.705 303.691 219.705 300.883V54.9943C219.705 52.2763 217.531 50.0113 214.722 50.0113H39.7736Z" fill="#EBEBEB"/>
<path d="M410.689 306.047H235.74C232.932 306.047 230.576 303.691 230.576 300.883V54.9943C230.576 52.1857 232.932 49.8301 235.74 49.8301H410.689C413.498 49.8301 415.853 52.1857 415.853 54.9943V300.883C415.853 303.691 413.498 306.047 410.689 306.047ZM235.74 50.0113C233.022 50.0113 230.757 52.1857 230.757 54.9943V300.883C230.757 303.601 232.932 305.866 235.74 305.866H410.689C413.407 305.866 415.672 303.691 415.672 300.883V54.9943C415.672 52.2763 413.498 50.0113 410.689 50.0113H235.74Z" fill="#EBEBEB"/>
<path d="M356.148 69.0371H91.7773V192.706H356.148V69.0371Z" fill="#E6E6E6"/>
<path d="M360.044 69.0371H93.5898V192.706H360.044V69.0371Z" fill="#F0F0F0"/>
<path d="M356.148 192.706H91.7773V199.048H356.148V192.706Z" fill="#E6E6E6"/>
<path d="M366.748 192.706H100.293V199.048H366.748V192.706Z" fill="#F0F0F0"/>
<path d="M354.518 187.089V74.5635L99.2068 74.5635V187.089H354.518Z" fill="#FAFAFA"/>
<path d="M126.568 187.089L142.152 74.5635H166.342L150.849 187.089H126.568Z" fill="white"/>
<path d="M101.743 181.562C101.562 181.562 101.381 181.381 101.381 181.2V78.2784C101.381 78.0972 101.562 77.916 101.743 77.916C101.924 77.916 102.106 78.0972 102.106 78.2784V181.2C102.106 181.381 101.924 181.562 101.743 181.562Z" fill="#F0F0F0"/>
<path d="M156.014 187.089L171.506 74.5635H181.019L165.436 187.089H156.014Z" fill="white"/>
<path d="M354.518 187.089V74.5635H353.793V187.089H354.518Z" fill="#E6E6E6"/>
<path opacity="0.6" d="M361.404 82.9897H97.0331L96.5801 76.7383H360.951L361.404 82.9897Z" fill="#EBEBEB"/>
<path opacity="0.6" d="M361.404 93.2275H97.0331L96.5801 86.9761H360.951L361.404 93.2275Z" fill="#EBEBEB"/>
<path opacity="0.6" d="M361.404 103.465H97.0331L96.5801 97.2139H360.951L361.404 103.465Z" fill="#EBEBEB"/>
<path opacity="0.6" d="M361.404 113.703H97.0331L96.5801 107.452H360.951L361.404 113.703Z" fill="#EBEBEB"/>
<path opacity="0.6" d="M361.404 123.941H97.0331L96.5801 117.689H360.951L361.404 123.941Z" fill="#EBEBEB"/>
<path opacity="0.6" d="M361.404 134.179H97.0331L96.5801 127.927H360.951L361.404 134.179Z" fill="#EBEBEB"/>
<path d="M397.735 223.782H357.418V346.454H397.735V223.782Z" fill="#E6E6E6"/>
<path d="M386.954 346.454H397.735V329.512H375.629L386.954 346.454Z" fill="#FAFAFA"/>
<path d="M287.747 223.782H247.43V346.454H287.747V223.782Z" fill="#E6E6E6"/>
<path d="M397.735 223.782H278.324V340.656H397.735V223.782Z" fill="#FAFAFA"/>
<path d="M289.106 346.454H278.324V329.512H300.431L289.106 346.454Z" fill="#FAFAFA"/>
<path d="M389.31 267.36H286.66V296.624H389.31V267.36Z" fill="#F0F0F0"/>
<path d="M389.31 302.785H286.66V332.049H389.31V302.785Z" fill="#F0F0F0"/>
<path d="M302.786 264.824H373.182V266.273C373.182 268.629 371.28 270.532 368.924 270.532H306.953C304.598 270.532 302.695 268.629 302.695 266.273V264.824H302.786Z" fill="#FAFAFA"/>
<path d="M389.31 231.845H286.66V261.109H389.31V231.845Z" fill="#F0F0F0"/>
<path d="M302.786 229.309H373.182V230.758C373.182 233.114 371.28 235.016 368.924 235.016H306.953C304.598 235.016 302.695 233.114 302.695 230.758V229.309H302.786Z" fill="#FAFAFA"/>
<path d="M302.786 300.248H373.182V301.698C373.182 304.053 371.28 305.956 368.924 305.956H306.953C304.598 305.956 302.695 304.053 302.695 301.698V300.248H302.786Z" fill="#FAFAFA"/>
<path d="M48.3808 249.965C50.6458 243.533 68.3128 252.321 75.5608 263.012C80.3626 270.169 83.2618 277.78 84.6208 287.927C84.4396 276.239 84.2584 263.737 84.0772 251.959C82.6276 248.969 79.2754 242.264 76.9198 236.828C68.947 218.89 50.0116 212.185 43.4884 200.86C34.8814 186.002 34.972 163.714 42.22 155.651C48.562 148.675 69.5812 195.877 71.9368 201.223C80.0908 219.343 82.4464 232.842 83.9866 245.888C83.8054 234.835 83.6242 224.597 83.5336 216.715C83.0806 191.075 82.537 182.831 82.2652 180.294C81.3592 179.026 80.3626 177.576 79.7284 176.851C74.6548 170.328 63.3298 162.536 57.7126 153.023C49.468 139.162 50.827 122.491 56.6254 116.33C62.6956 109.898 73.3864 125.119 79.0036 140.339C84.7114 155.47 82.2652 170.056 83.8054 182.65C84.1678 185.096 84.4396 194.518 84.802 207.565C86.5234 193.522 89.9662 184.19 96.3082 175.402C104.1 164.62 110.895 151.574 117.327 153.205C123.76 154.926 120.317 172.231 115.244 184.371C110.714 195.243 88.3354 206.024 85.0738 214.722C85.4362 232.389 85.7986 254.677 86.0704 275.515C87.7918 264.733 86.614 263.827 93.862 247.429C98.1202 237.644 115.787 225.594 117.871 232.298C119.955 238.912 116.784 251.687 110.17 260.656C104.825 267.814 92.956 267.814 90.1474 272.253C89.5132 273.25 87.3388 277.236 86.161 279.592C86.4328 304.96 86.614 327.428 86.4328 335.039H85.255C85.255 333.136 85.255 320.18 84.9832 303.148C82.084 294.088 62.605 288.742 56.6254 279.229C50.374 269.354 45.844 257.757 48.562 250.056L48.3808 249.965Z" fill="#E6E6E6"/>
<path d="M66.6825 346.455H104.01C106.093 346.455 107.815 345.005 108.177 343.012L110.805 329.965H59.7969L62.4243 343.012C62.7867 345.005 64.5987 346.455 66.5919 346.455H66.6825Z" fill="#F0F0F0"/>
<path d="M58.7999 335.039H111.982C113.251 335.039 114.338 334.042 114.428 332.774L115.516 323.08C115.697 321.63 114.519 320.271 113.069 320.271H57.7127C56.2631 320.271 55.0853 321.539 55.2665 323.08L56.3537 332.774C56.5349 334.042 57.5315 335.039 58.7999 335.039Z" fill="#F0F0F0"/>
<path d="M161.088 287.746H129.197V346.454H161.088V287.746Z" fill="#E0E0E0"/>
<path d="M242.446 346.454H135.629L124.395 266.817H231.212L242.446 346.454Z" fill="#E6E6E6"/>
<path d="M258.029 346.454H139.887L128.652 266.817H246.795L258.029 346.454Z" fill="#F0F0F0"/>
<path d="M151.393 334.042L141.971 279.229H235.198L244.711 334.042H151.393Z" fill="white"/>
<path d="M191.528 334.042L159.818 279.229H169.784L201.404 334.042H191.528Z" fill="#FAFAFA"/>
<path d="M205.663 334.042L173.953 279.229H190.895L222.605 334.042H205.663Z" fill="#FAFAFA"/>
<path d="M226.5 387.315C323.521 387.315 402.173 382.731 402.173 377.077C402.173 371.423 323.521 366.839 226.5 366.839C129.478 366.839 50.8262 371.423 50.8262 377.077C50.8262 382.731 129.478 387.315 226.5 387.315Z" fill="#F5F5F5"/>
<path d="M70.0333 200.679C69.8521 200.679 69.6709 200.498 69.6709 200.317L67.6777 176.126C67.6777 175.945 67.8589 175.764 68.0401 175.673C68.2213 175.673 68.4025 175.855 68.4931 176.036L70.4863 200.226C70.4863 200.407 70.3051 200.588 70.1239 200.679H70.0333Z" fill="#5F08B1"/>
<path d="M71.2114 215.085C71.0302 215.085 70.849 214.903 70.849 214.722L70.2148 207.384C70.2148 207.202 70.396 207.021 70.5772 206.931C70.7584 206.931 70.9396 207.112 71.0302 207.293L71.6644 214.632C71.6644 214.813 71.4832 214.994 71.302 215.085H71.2114Z" fill="#5F08B1"/>
<path d="M275.06 283.941H87.9712C83.1694 283.941 79.0018 280.045 78.5488 275.243L68.0392 148.584C67.6768 143.783 71.2102 139.887 76.012 139.887H263.101C267.903 139.887 272.07 143.783 272.523 148.584L283.033 275.243C283.395 280.045 279.862 283.941 275.06 283.941Z" fill="white"/>
<path d="M275.061 284.303H87.972C82.989 284.303 78.6402 280.226 78.1872 275.334L67.6776 148.675C67.4964 146.229 68.2212 143.964 69.852 142.242C71.3922 140.521 73.6572 139.615 76.0128 139.615H263.102C268.085 139.615 272.434 143.692 272.887 148.584L283.396 275.243C283.577 277.689 282.853 279.954 281.222 281.676C279.682 283.397 277.417 284.303 275.061 284.303ZM76.0128 140.249C73.8384 140.249 71.8452 141.064 70.3956 142.695C68.946 144.235 68.2212 146.319 68.4024 148.584L78.912 275.243C79.2744 279.864 83.3514 283.578 87.972 283.578H275.061C277.235 283.578 279.229 282.763 280.678 281.132C282.128 279.592 282.853 277.508 282.671 275.243L272.162 148.584C271.799 143.964 267.722 140.249 263.102 140.249H76.0128Z" fill="#5F08B1"/>
<path d="M263.01 139.887H76.012C71.2102 139.887 67.6768 143.783 68.0392 148.584H272.433C272.07 143.783 267.812 139.887 263.01 139.887Z" fill="#5F08B1"/>
<path d="M80.3621 144.235C80.3621 145.232 79.6373 146.138 78.6407 146.138C77.6441 146.138 76.7381 145.322 76.6475 144.235C76.5569 143.148 77.3723 142.333 78.3689 142.333C79.3655 142.333 80.2715 143.148 80.3621 144.235Z" fill="white"/>
<path d="M87.9734 144.235C87.9734 145.232 87.2486 146.138 86.252 146.138C85.2554 146.138 84.3494 145.322 84.2588 144.235C84.1682 143.148 84.9836 142.333 85.9802 142.333C86.9768 142.333 87.8828 143.148 87.9734 144.235Z" fill="white"/>
<path d="M95.5837 144.235C95.5837 145.232 94.8589 146.138 93.8623 146.138C92.8657 146.138 91.9597 145.322 91.8691 144.235C91.8691 143.239 92.5939 142.333 93.5905 142.333C94.5871 142.333 95.4931 143.148 95.5837 144.235Z" fill="white"/>
<path d="M258.753 267.361H101.472C97.6663 267.361 94.3141 264.28 94.0423 260.475L86.7037 172.14C86.4319 168.335 89.2405 165.254 93.0457 165.254H250.418C254.223 165.254 257.575 168.335 257.847 172.14L265.186 260.475C265.458 264.28 262.649 267.361 258.844 267.361H258.753Z" fill="#F0F0F0"/>
<path d="M226.952 165.889L181.38 232.027C175.129 240.996 180.655 253.409 191.527 254.858L275.332 266.002C286.929 267.542 295.627 255.492 290.372 244.983L252.139 167.701C247.156 157.644 233.294 156.648 226.952 165.889Z" fill="#FF0000"/>
<path d="M193.52 248.969C190.44 248.607 187.812 246.614 186.453 243.805C185.094 240.996 185.185 237.916 186.906 235.47L232.569 169.151C234.199 166.704 237.008 165.527 240.088 165.98C243.169 166.342 245.796 168.335 247.155 171.144L285.479 248.697C286.838 251.506 286.747 254.586 285.026 257.033C283.395 259.479 280.587 260.657 277.506 260.204L193.52 249.06V248.969Z" fill="white"/>
<path d="M236.102 189.445L241.447 190.17C244.89 190.623 247.517 193.703 247.336 197.146L246.974 204.122C246.974 204.394 246.974 204.666 246.974 204.847L243.168 225.866C242.625 228.856 239.816 230.849 236.736 230.396C233.565 229.943 231.028 227.316 230.847 224.145L229.307 202.492C229.307 202.22 229.307 201.948 229.307 201.767L229.669 194.791C229.85 191.438 232.749 188.992 236.192 189.445H236.102ZM235.739 236.104L237.189 236.285C240.269 236.738 242.625 239.456 242.444 242.537C242.262 245.617 239.635 247.701 236.645 247.248L235.196 247.067C232.115 246.614 229.76 243.896 229.941 240.815C230.122 237.735 232.749 235.651 235.739 236.104Z" fill="#FF0000"/>
<path d="M119.139 176.036L106.636 223.51C105.005 229.762 110.441 235.651 116.874 234.382L165.436 224.869C172.231 223.51 174.949 215.175 170.147 210.192L134.088 172.231C129.377 167.248 120.951 169.332 119.139 176.036Z" fill="#FF0000"/>
<path d="M116.784 230.487C115.063 230.849 113.16 230.215 111.892 228.856C110.623 227.497 110.08 225.594 110.533 223.873L123.036 176.308C123.489 174.587 124.848 173.318 126.569 173.046C128.29 172.684 130.193 173.318 131.461 174.677L167.611 212.729C168.879 214.088 169.423 215.991 168.97 217.712C168.517 219.434 167.158 220.702 165.436 220.974L116.784 230.487Z" fill="white"/>
<path d="M128.924 187.452L132.004 186.817C133.998 186.455 136.081 187.723 136.625 189.807L137.803 193.975C137.803 194.156 137.803 194.247 137.893 194.428L139.796 207.474C140.068 209.377 138.89 211.008 137.078 211.37C135.266 211.732 133.363 210.645 132.639 208.833L127.656 196.421C127.656 196.24 127.565 196.149 127.474 195.968L126.297 191.8C125.753 189.807 126.931 187.814 128.924 187.452ZM137.622 214.903L138.437 214.722C140.249 214.36 142.061 215.538 142.514 217.35C142.967 219.162 141.97 220.883 140.158 221.245L139.343 221.427C137.531 221.789 135.719 220.611 135.266 218.799C134.813 216.987 135.81 215.266 137.622 214.903Z" fill="#FF0000"/>
<path d="M351.891 186.636L344.824 188.901L350.441 195.606C350.441 195.606 353.069 193.341 354.518 190.804C355.153 189.717 354.79 188.358 353.703 187.814L351.8 186.727L351.891 186.636Z" fill="#7F3E3B"/>
<path d="M341.562 194.428L345.821 199.592L350.441 195.605L344.824 188.992L341.562 194.428Z" fill="#7F3E3B"/>
<path d="M354.157 132.004C355.878 136.716 357.418 141.427 358.958 146.229C360.408 151.03 361.858 155.832 363.035 160.815L363.488 162.718L363.67 163.714V164.258C363.76 164.258 363.76 164.349 363.76 164.349V164.53V164.892C364.032 166.976 363.76 168.516 363.488 170.056C362.854 173.046 361.948 175.492 360.861 177.939C358.687 182.74 356.15 187.089 353.069 191.347L348.358 188.72C349.989 184.19 351.71 179.569 352.888 175.039C353.522 172.774 353.975 170.6 354.157 168.607C354.157 167.61 354.157 166.795 354.066 166.342L353.704 164.892L353.16 163.261C351.71 158.731 350.08 154.02 348.539 149.4C346.909 144.779 345.368 140.068 343.828 135.447L354.066 131.823L354.157 132.004Z" fill="#7F3E3B"/>
<path d="M315.018 103.919C315.108 104.462 315.018 105.006 314.565 105.096C314.112 105.187 313.84 104.825 313.659 104.281C313.568 103.737 313.659 103.194 314.112 103.103C314.565 103.013 314.836 103.375 315.018 103.919Z" fill="#263238"/>
<path d="M314.926 105.006C314.926 105.006 314.382 108.63 313.295 110.532C314.473 111.257 316.104 110.351 316.104 110.351L315.016 105.006H314.926Z" fill="#630F0F"/>
<path d="M313.476 100.566C313.386 100.566 313.295 100.566 313.204 100.385C313.114 100.204 313.204 100.023 313.204 99.9322C313.204 99.9322 314.563 99.0262 316.285 99.6604C316.466 99.6604 316.557 99.9322 316.466 100.113C316.466 100.295 316.194 100.385 316.013 100.295C314.654 99.751 313.567 100.476 313.567 100.476C313.567 100.476 313.476 100.476 313.386 100.476L313.476 100.566Z" fill="#263238"/>
<path d="M334.405 105.73C335.039 112.344 334.133 118.686 335.582 124.394C335.582 124.394 333.952 129.739 324.257 129.739C314.563 129.739 319.365 124.394 319.365 124.394C325.254 123.035 325.254 118.686 324.439 114.609L334.495 105.73H334.405Z" fill="#7F3E3B"/>
<path d="M337.667 126.206C338.482 124.485 339.026 122.129 337.304 121.585C335.402 120.951 325.255 120.679 321.631 121.948C317.916 123.216 318.822 126.568 318.822 126.568L337.576 126.206H337.667Z" fill="#263238"/>
<path d="M359.502 364.846C360.227 364.665 360.951 364.393 361.404 364.121C361.404 364.121 361.495 364.031 361.495 363.94C361.495 363.85 361.495 363.759 361.404 363.759C361.042 363.668 358.233 362.762 357.509 363.397C357.418 363.487 357.237 363.668 357.327 363.94C357.327 364.393 357.599 364.665 357.962 364.846C358.415 365.027 358.958 365.027 359.502 364.846ZM360.861 363.94C359.592 364.484 358.596 364.665 358.143 364.484C357.962 364.393 357.78 364.212 357.78 363.85C357.78 363.668 357.78 363.668 357.78 363.578C358.143 363.215 359.683 363.578 360.861 363.94Z" fill="#407BFF"/>
<path d="M361.404 364.121C361.404 364.121 361.404 364.121 361.494 364.121C361.494 364.121 361.494 364.031 361.494 363.94C361.494 363.85 360.77 361.675 359.682 361.222C359.411 361.132 359.139 361.041 358.867 361.222C358.414 361.403 358.414 361.675 358.414 361.856C358.414 362.762 360.407 364.031 361.223 364.303C361.223 364.303 361.223 364.303 361.313 364.303L361.404 364.121ZM359.139 361.403C359.32 361.403 359.411 361.403 359.592 361.403C360.226 361.766 360.77 362.944 361.041 363.578C360.135 363.125 358.867 362.128 358.867 361.585C358.867 361.585 358.867 361.403 359.048 361.313L359.139 361.403Z" fill="#407BFF"/>
<path d="M310.034 370.373C310.759 370.373 311.574 370.192 312.118 370.101C312.118 370.101 312.208 370.101 312.299 369.92C312.39 369.739 312.299 369.739 312.299 369.739C312.027 369.558 309.49 368.018 308.675 368.471C308.584 368.471 308.403 368.652 308.312 369.014C308.312 369.467 308.403 369.739 308.675 370.011C309.037 370.283 309.581 370.373 310.215 370.373H310.034ZM311.484 369.83C310.125 370.102 309.128 370.011 308.675 369.648C308.494 369.467 308.403 369.286 308.403 369.014C308.403 368.833 308.403 368.833 308.494 368.833C308.947 368.561 310.396 369.286 311.393 369.83H311.484Z" fill="#407BFF"/>
<path d="M312.027 370.101C312.027 370.101 312.027 370.101 312.117 370.101C312.117 370.101 312.117 370.011 312.117 369.92C312.117 369.829 311.936 367.564 311.03 366.84C310.758 366.658 310.486 366.568 310.215 366.568C309.762 366.568 309.671 366.93 309.671 367.021C309.49 367.927 311.03 369.648 311.845 370.011L312.027 370.101ZM310.396 366.93C310.577 366.93 310.668 366.93 310.849 367.111C311.392 367.564 311.664 368.923 311.755 369.558C310.939 368.923 309.943 367.655 310.033 367.111C310.033 367.111 310.033 366.93 310.305 366.93H310.396Z" fill="#407BFF"/>
<path d="M320.453 369.829H313.296L313.205 353.25H320.362L320.453 369.829Z" fill="#7F3E3B"/>
<path d="M370.283 363.669L363.397 364.937L358.414 348.629L365.3 347.361L370.283 363.669Z" fill="#7F3E3B"/>
<path d="M362.038 363.125L369.829 361.313C370.101 361.313 370.373 361.313 370.554 361.675L373.182 367.564C373.453 368.199 373.091 368.923 372.366 369.014C369.648 369.648 368.289 369.739 364.846 370.554C362.763 371.098 358.414 372.276 355.515 373C352.615 373.635 351.619 370.826 352.797 370.282C357.961 367.836 359.592 365.752 361.041 363.759C361.313 363.397 361.675 363.125 362.128 363.034L362.038 363.125Z" fill="#263238"/>
<path d="M313.386 369.014H321.177C321.449 369.014 321.721 369.195 321.811 369.467L322.989 375.809C323.08 376.443 322.627 377.077 321.902 377.077C319.093 377.077 315.016 376.896 311.483 376.896C307.95 376.896 305.866 377.077 300.973 377.077C296.081 377.077 297.349 374.088 298.618 373.816C304.235 372.547 306.681 372.457 311.664 369.467C312.208 369.105 312.751 368.923 313.386 368.923V369.014Z" fill="#263238"/>
<path d="M351.53 126.297C358.234 131.008 360.227 143.058 360.227 143.058L345.097 150.759C345.097 150.759 341.292 143.329 339.57 135.719C337.94 128.562 346.818 122.944 351.53 126.297Z" fill="#5F08B1"/>
<path opacity="0.2" d="M343.919 133.998L349.899 148.312L345.097 150.759C345.097 150.759 343.013 146.682 341.201 141.427L344.01 133.998H343.919Z" fill="#5F08B1"/>
<path d="M307.045 157.644C307.045 165.617 307.589 175.583 308.766 187.905H347C347.453 182.288 345.097 155.832 350.805 129.287C351.258 127.293 349.899 125.391 347.906 125.119C345.459 124.757 342.107 124.304 338.846 124.122C333.953 123.851 326.886 123.76 322.628 124.122C320.273 124.304 318.008 124.666 316.105 125.119C312.843 125.753 310.216 128.199 309.401 131.37C308.585 134.451 307.77 139.162 307.317 146.319C307.136 149.581 307.045 153.386 307.045 157.735V157.644Z" fill="#5F08B1"/>
<path opacity="0.2" d="M319.094 142.695C316.558 144.598 311.756 145.413 307.316 145.776C307.316 144.598 307.498 143.511 307.588 142.424C308.766 141.789 309.944 141.246 311.031 140.702L319.094 142.605V142.695Z" fill="black"/>
<g opacity="0.2">
<path d="M313.205 353.25V362.491H320.362V353.25H313.205Z" fill="black"/>
<path d="M365.3 347.361L358.414 348.629L360.951 357.055L367.836 355.787L365.3 347.361Z" fill="black"/>
</g>
<path d="M333.408 98.0296C334.496 105.096 335.402 109.083 332.684 113.522C328.607 120.227 319.456 119.139 316.376 112.616C313.567 106.727 312.299 96.2176 318.459 91.7782C324.53 87.4294 332.321 90.9628 333.408 97.939V98.0296Z" fill="#7F3E3B"/>
<path d="M318.732 103.194C316.104 102.016 316.376 97.8482 317.101 96.1268C314.021 97.214 309.581 97.7576 308.766 94.6772C307.95 91.5968 310.668 90.5096 309.038 87.8822C307.407 85.2548 312.662 82.265 315.108 85.9796C317.554 89.6942 323.624 88.0634 327.611 84.4394C330.51 81.812 334.677 85.1642 332.956 88.607C332.956 88.607 341.563 88.0634 339.842 93.8618C338.12 99.6602 335.674 99.932 336.308 104.1C336.671 106.908 337.033 112.616 333.681 113.431C329.604 114.428 319.457 110.804 318.732 103.194Z" fill="#263238"/>
<path opacity="0.2" d="M318.731 110.804C317.916 111.347 317.101 111.982 316.285 112.616C316.285 112.616 316.285 112.616 316.285 112.706C317.101 114.518 318.46 115.877 320 116.783C320.543 116.33 320.815 114.609 321.721 114.609C324.62 114.609 330.147 113.522 331.053 110.26L318.641 110.804H318.731Z" fill="black"/>
<path d="M320.906 103.103C321.088 104.915 320.816 106.637 320.182 107.724C319.366 109.355 318.098 108.358 317.554 106.274C317.101 104.462 317.011 101.382 318.188 100.476C319.366 99.5698 320.635 101.019 320.906 103.103Z" fill="#7F3E3B"/>
<path d="M322.355 187.905C322.355 187.905 328.335 242.536 332.05 263.012C336.036 285.39 356.874 355.786 356.874 355.786L369.649 353.068C369.649 353.068 355.334 287.202 353.431 265.005C351.347 240.906 347.089 187.814 347.089 187.814H322.446L322.355 187.905Z" fill="#CCCCCC"/>
<path d="M353.885 351.528L356.059 356.239L370.465 353.159L369.468 348.81L353.885 351.528Z" fill="#263238"/>
<path opacity="0.2" d="M326.705 207.383C336.037 209.195 333.681 244.258 331.869 262.196C329.695 249.512 326.614 224.96 324.621 207.655C325.255 207.383 325.98 207.202 326.705 207.383Z" fill="black"/>
<path d="M308.766 187.905C308.766 187.905 305.686 241.359 305.686 263.193C305.686 285.843 310.669 360.135 310.669 360.135H322.809C322.809 360.135 326.071 287.202 327.43 264.915C328.97 240.634 333.953 187.905 333.953 187.905H308.766Z" fill="#CCCCCC"/>
<path d="M308.494 355.333L308.947 360.407H323.715L324.259 355.877L308.494 355.333Z" fill="#263238"/>
<path d="M323.896 137.441C322.446 137.622 321.178 137.622 319.909 137.712C318.641 137.712 317.282 137.712 316.013 137.712C313.386 137.712 310.759 137.531 308.131 137.259C305.504 136.988 302.876 136.535 300.249 135.9C297.622 135.266 294.904 134.36 292.276 133.092L292.004 132.911C289.649 131.733 288.652 128.924 289.83 126.569C289.921 126.297 290.102 126.025 290.283 125.844C291.551 124.213 292.729 123.035 293.907 121.948C295.085 120.861 296.353 119.864 297.622 118.958C300.068 117.056 302.605 115.425 305.141 113.885C307.678 112.344 310.215 110.804 312.842 109.355C315.47 107.996 318.097 106.546 320.815 105.278C322.174 104.643 323.805 105.278 324.439 106.546C324.983 107.724 324.62 109.083 323.624 109.808C321.359 111.62 319.003 113.341 316.738 115.062C314.473 116.784 312.208 118.596 309.943 120.408C307.678 122.22 305.504 124.032 303.511 125.844C302.514 126.75 301.517 127.746 300.611 128.652C299.705 129.558 298.89 130.555 298.437 131.28L296.444 124.032C298.256 124.757 300.34 125.3 302.514 125.663C304.688 126.025 306.953 126.297 309.218 126.478C311.483 126.659 313.839 126.659 316.195 126.659C317.372 126.659 318.55 126.659 319.728 126.659C320.906 126.659 322.084 126.659 323.08 126.478H323.171C326.161 126.297 328.697 128.562 328.879 131.552C329.06 134.451 326.885 136.988 323.986 137.259L323.896 137.441Z" fill="#7F3E3B"/>
<path d="M328.969 103.918L324.439 104.915C324.439 104.915 318.369 104.19 317.01 108.72L320.634 111.8L326.16 112.706C327.066 112.888 327.972 112.706 328.697 112.253L330.147 111.529C330.781 111.166 331.234 110.532 331.325 109.807L331.687 106.183C331.778 104.734 330.509 103.556 329.06 103.918H328.969Z" fill="#7F3E3B"/>
<path d="M320.181 142.786C312.571 144.87 303.873 142.242 303.873 142.242L307.044 125.209C307.044 125.209 314.654 124.575 319.366 124.485C331.506 124.213 333.952 139.071 320.181 142.876V142.786Z" fill="#5F08B1"/>
</svg>
