<svg width="453" height="453" viewBox="0 0 453 453" fill="none" xmlns="http://www.w3.org/2000/svg">
<path d="M215.99 309.426H41.0502C39.6789 309.424 38.3645 308.878 37.3948 307.908C36.4252 306.939 35.8793 305.624 35.877 304.253V58.3374C35.8913 56.974 36.4423 55.6711 37.4107 54.7113C38.3791 53.7514 39.6867 53.2118 41.0502 53.2095H215.99C217.36 53.2119 218.674 53.758 219.642 54.7279C220.61 55.6978 221.154 57.0123 221.154 58.3827V304.253C221.154 305.623 220.61 306.938 219.642 307.908C218.674 308.878 217.36 309.424 215.99 309.426ZM41.0502 53.3907C39.739 53.3931 38.4822 53.915 37.555 54.8422C36.6278 55.7694 36.1058 57.0262 36.1035 58.3374V304.253C36.1058 305.564 36.6278 306.821 37.555 307.748C38.4822 308.675 39.739 309.197 41.0502 309.2H215.99C217.3 309.197 218.556 308.675 219.482 307.748C220.408 306.82 220.927 305.563 220.927 304.253V58.3374C220.927 57.027 220.408 55.7702 219.482 54.8427C218.556 53.9153 217.3 53.3931 215.99 53.3907H41.0502Z" fill="#E6E6E6"/>
<path d="M411.959 309.426H237.01C235.639 309.424 234.326 308.878 233.358 307.908C232.389 306.938 231.846 305.623 231.846 304.253V58.3374C231.858 56.9748 232.407 55.672 233.374 54.7118C234.341 53.7517 235.647 53.2118 237.01 53.2095H411.959C413.321 53.2118 414.628 53.7517 415.595 54.7118C416.562 55.672 417.111 56.9748 417.123 58.3374V304.253C417.123 305.623 416.579 306.938 415.611 307.908C414.642 308.878 413.329 309.424 411.959 309.426ZM237.01 53.3907C235.7 53.3931 234.444 53.9153 233.518 54.8427C232.592 55.7702 232.072 57.027 232.072 58.3374V304.253C232.072 305.563 232.592 306.82 233.518 307.748C234.444 308.675 235.7 309.197 237.01 309.2H411.959C413.271 309.197 414.528 308.676 415.457 307.749C416.386 306.822 416.91 305.565 416.914 304.253V58.3374C416.91 57.0254 416.386 55.7686 415.457 54.8416C414.528 53.9147 413.271 53.3931 411.959 53.3907H237.01Z" fill="#E6E6E6"/>
<path d="M188.22 178.899L186.979 285.39C182.594 320.824 119.781 348.955 119.781 348.955C119.781 348.955 56.9592 320.851 52.547 285.39L51.2695 178.899L118.404 156.801L188.22 178.899Z" fill="#F5F5F5"/>
<path d="M179.459 185.639L178.381 281.259C174.558 312.162 119.772 336.697 119.772 336.697C119.772 336.697 64.9864 312.162 61.1721 281.259L60.0215 185.639L118.576 166.369L179.459 185.639Z" fill="#E0E0E0"/>
<path d="M175.618 191.674L174.604 279.456C170.98 308.448 119.655 331.424 119.655 331.424C119.655 331.424 68.2936 308.421 64.7149 279.456L63.6367 191.674L118.531 173.608L175.618 191.674Z" stroke="white" stroke-width="3" stroke-linecap="round" stroke-linejoin="round"/>
<path d="M398.93 142.958H278.088V354.998H398.93V142.958Z" fill="#F5F5F5"/>
<path d="M390.168 151.293H287.02V354.998H390.168V151.293Z" fill="#E0E0E0"/>
<path d="M289.92 355.904C289.739 355.905 289.56 355.868 289.394 355.795C289.23 355.73 289.082 355.631 288.959 355.505C288.828 355.382 288.725 355.23 288.66 355.061C288.595 354.897 288.561 354.722 288.561 354.545C288.561 354.344 288.605 354.146 288.691 353.965C288.777 353.784 288.902 353.624 289.057 353.496C289.212 353.369 289.393 353.278 289.588 353.229C289.782 353.18 289.985 353.174 290.182 353.213L290.436 353.286L290.672 353.412C290.745 353.465 290.815 353.522 290.88 353.585C290.944 353.646 290.999 353.716 291.043 353.793C291.096 353.865 291.139 353.945 291.17 354.029C291.206 354.11 291.234 354.195 291.251 354.282C291.261 354.37 291.261 354.458 291.251 354.545C291.252 354.723 291.215 354.899 291.143 355.061C291.078 355.228 290.979 355.379 290.853 355.505C290.604 355.752 290.27 355.895 289.92 355.904Z" fill="white"/>
<path d="M288.543 321.168C288.544 320.989 288.581 320.811 288.651 320.646C288.721 320.481 288.823 320.332 288.951 320.206C289.079 320.081 289.23 319.982 289.397 319.915C289.563 319.849 289.741 319.816 289.92 319.818C290.281 319.818 290.626 319.961 290.881 320.216C291.136 320.471 291.279 320.817 291.279 321.177C291.279 321.537 291.136 321.883 290.881 322.138C290.626 322.393 290.281 322.536 289.92 322.536C289.739 322.538 289.56 322.505 289.392 322.437C289.225 322.369 289.072 322.269 288.944 322.141C288.816 322.014 288.714 321.862 288.646 321.695C288.577 321.528 288.542 321.349 288.543 321.168ZM288.543 287.8C288.543 287.439 288.686 287.094 288.941 286.839C289.196 286.584 289.542 286.441 289.902 286.441C290.262 286.441 290.608 286.584 290.863 286.839C291.118 287.094 291.261 287.439 291.261 287.8C291.261 288.16 291.118 288.506 290.863 288.761C290.608 289.016 290.262 289.159 289.902 289.159C289.542 289.159 289.196 289.016 288.941 288.761C288.686 288.506 288.543 288.16 288.543 287.8ZM288.543 254.423C288.543 254.062 288.686 253.717 288.941 253.462C289.196 253.207 289.542 253.064 289.902 253.064C290.262 253.064 290.608 253.207 290.863 253.462C291.118 253.717 291.261 254.062 291.261 254.423C291.261 254.783 291.118 255.129 290.863 255.384C290.608 255.639 290.262 255.782 289.902 255.782C289.724 255.782 289.547 255.747 289.382 255.678C289.217 255.61 289.067 255.51 288.941 255.384C288.815 255.258 288.715 255.108 288.646 254.943C288.578 254.778 288.543 254.601 288.543 254.423ZM288.543 221.046C288.543 220.685 288.686 220.34 288.941 220.085C289.196 219.83 289.542 219.687 289.902 219.687C290.262 219.687 290.608 219.83 290.863 220.085C291.118 220.34 291.261 220.685 291.261 221.046C291.261 221.406 291.118 221.752 290.863 222.007C290.608 222.262 290.262 222.405 289.902 222.405C289.545 222.405 289.202 222.264 288.947 222.013C288.693 221.762 288.548 221.421 288.543 221.064V221.046ZM288.543 187.678C288.543 187.317 288.686 186.972 288.941 186.717C289.196 186.462 289.542 186.319 289.902 186.319C290.262 186.319 290.608 186.462 290.863 186.717C291.118 186.972 291.261 187.317 291.261 187.678C291.261 188.038 291.118 188.384 290.863 188.639C290.608 188.894 290.262 189.037 289.902 189.037C289.724 189.037 289.547 189.002 289.382 188.933C289.217 188.865 289.067 188.765 288.941 188.639C288.815 188.513 288.715 188.363 288.646 188.198C288.578 188.033 288.543 187.856 288.543 187.678Z" fill="white"/>
<path d="M289.919 155.66C289.74 155.661 289.563 155.626 289.399 155.557C289.234 155.489 289.084 155.388 288.959 155.261C288.892 155.2 288.834 155.13 288.786 155.053C288.739 154.98 288.696 154.905 288.66 154.826C288.622 154.743 288.598 154.654 288.587 154.564C288.578 154.476 288.578 154.388 288.587 154.301C288.589 153.941 288.732 153.596 288.986 153.34C289.046 153.276 289.113 153.218 289.185 153.168C289.259 153.12 289.338 153.081 289.421 153.051C289.502 153.015 289.587 152.988 289.674 152.969C289.851 152.933 290.033 152.933 290.209 152.969C290.296 152.988 290.381 153.015 290.463 153.051C290.545 153.081 290.624 153.12 290.698 153.168C290.772 153.221 290.841 153.278 290.906 153.34C291.16 153.596 291.303 153.941 291.305 154.301C291.314 154.388 291.314 154.476 291.305 154.564C291.286 154.654 291.259 154.741 291.224 154.826C291.19 154.906 291.148 154.982 291.097 155.053C291.053 155.13 290.998 155.2 290.934 155.261C290.801 155.393 290.642 155.497 290.467 155.565C290.293 155.634 290.106 155.666 289.919 155.66Z" fill="white"/>
<path d="M353.231 154.301C353.231 153.94 353.374 153.595 353.629 153.34C353.884 153.085 354.229 152.942 354.59 152.942C354.95 152.942 355.296 153.085 355.551 153.34C355.806 153.595 355.949 153.94 355.949 154.301C355.949 154.661 355.806 155.007 355.551 155.262C355.296 155.517 354.95 155.66 354.59 155.66C354.229 155.66 353.884 155.517 353.629 155.262C353.374 155.007 353.231 154.661 353.231 154.301ZM320.887 154.301C320.887 153.94 321.03 153.595 321.285 153.34C321.54 153.085 321.885 152.942 322.246 152.942C322.606 152.942 322.952 153.085 323.207 153.34C323.462 153.595 323.605 153.94 323.605 154.301C323.605 154.661 323.462 155.007 323.207 155.262C322.952 155.517 322.606 155.66 322.246 155.66C321.885 155.66 321.54 155.517 321.285 155.262C321.03 155.007 320.887 154.661 320.887 154.301Z" fill="white"/>
<path d="M386.933 155.66C386.846 155.669 386.758 155.669 386.67 155.66L386.417 155.587L386.181 155.461C386.108 155.408 386.038 155.351 385.973 155.289C385.718 155.034 385.575 154.688 385.574 154.328C385.576 153.968 385.72 153.624 385.973 153.368C386.036 153.306 386.106 153.251 386.181 153.205C386.253 153.15 386.332 153.107 386.417 153.078C386.498 153.041 386.583 153.014 386.67 152.996C386.847 152.96 387.029 152.96 387.205 152.996L387.459 153.078C387.541 153.108 387.617 153.15 387.685 153.205C387.762 153.249 387.832 153.304 387.894 153.368C388.147 153.624 388.29 153.968 388.292 154.328C388.292 154.688 388.149 155.034 387.894 155.289C387.83 155.353 387.76 155.411 387.685 155.461C387.613 155.508 387.537 155.551 387.459 155.587L387.205 155.66C387.115 155.669 387.024 155.669 386.933 155.66Z" fill="white"/>
<path d="M385.574 321.168C385.574 320.807 385.717 320.462 385.972 320.207C386.227 319.952 386.573 319.809 386.933 319.809C387.294 319.809 387.639 319.952 387.894 320.207C388.149 320.462 388.292 320.807 388.292 321.168C388.292 321.528 388.149 321.874 387.894 322.129C387.639 322.384 387.294 322.527 386.933 322.527C386.573 322.527 386.227 322.384 385.972 322.129C385.717 321.874 385.574 321.528 385.574 321.168ZM385.574 287.8C385.574 287.439 385.717 287.094 385.972 286.839C386.227 286.584 386.573 286.441 386.933 286.441C387.294 286.441 387.639 286.584 387.894 286.839C388.149 287.094 388.292 287.439 388.292 287.8C388.292 288.16 388.149 288.506 387.894 288.761C387.639 289.016 387.294 289.159 386.933 289.159C386.573 289.159 386.227 289.016 385.972 288.761C385.717 288.506 385.574 288.16 385.574 287.8ZM385.574 254.423C385.574 254.062 385.717 253.717 385.972 253.462C386.227 253.207 386.573 253.064 386.933 253.064C387.294 253.064 387.639 253.207 387.894 253.462C388.149 253.717 388.292 254.062 388.292 254.423C388.292 254.783 388.149 255.129 387.894 255.384C387.639 255.639 387.294 255.782 386.933 255.782C386.755 255.782 386.578 255.747 386.413 255.678C386.248 255.61 386.098 255.51 385.972 255.384C385.846 255.258 385.746 255.108 385.678 254.943C385.609 254.778 385.574 254.601 385.574 254.423ZM385.574 221.046C385.574 220.685 385.717 220.34 385.972 220.085C386.227 219.83 386.573 219.687 386.933 219.687C387.294 219.687 387.639 219.83 387.894 220.085C388.149 220.34 388.292 220.685 388.292 221.046C388.292 221.406 388.149 221.752 387.894 222.007C387.639 222.262 387.294 222.405 386.933 222.405C386.576 222.405 386.233 222.264 385.979 222.013C385.724 221.762 385.579 221.421 385.574 221.064V221.046ZM385.574 187.678C385.574 187.317 385.717 186.972 385.972 186.717C386.227 186.462 386.573 186.319 386.933 186.319C387.294 186.319 387.639 186.462 387.894 186.717C388.149 186.972 388.292 187.317 388.292 187.678C388.292 188.038 388.149 188.384 387.894 188.639C387.639 188.894 387.294 189.037 386.933 189.037C386.755 189.037 386.578 189.002 386.413 188.933C386.248 188.865 386.098 188.765 385.972 188.639C385.846 188.513 385.746 188.363 385.678 188.198C385.609 188.033 385.574 187.856 385.574 187.678Z" fill="white"/>
<path d="M386.934 355.904C386.665 355.904 386.403 355.824 386.18 355.675C385.956 355.525 385.782 355.313 385.68 355.065C385.577 354.817 385.55 354.544 385.602 354.28C385.655 354.017 385.784 353.775 385.974 353.585C386.039 353.522 386.109 353.465 386.182 353.412L386.418 353.286L386.671 353.213C386.848 353.177 387.029 353.177 387.206 353.213L387.459 353.286C387.538 353.322 387.614 353.365 387.686 353.412C387.761 353.463 387.831 353.52 387.894 353.585C388.149 353.839 388.293 354.185 388.293 354.545C388.295 354.724 388.26 354.901 388.192 355.066C388.123 355.231 388.022 355.38 387.894 355.505C387.64 355.76 387.294 355.904 386.934 355.904Z" fill="white"/>
<path d="M86.0687 355.342H48.7324V355.569H86.0687V355.342Z" fill="#E0E0E0"/>
<path d="M162.173 353.53H124.729V353.757H162.173V353.53Z" fill="#E0E0E0"/>
<path d="M210.898 353.53H201.838V353.757H210.898V353.53Z" fill="#E0E0E0"/>
<path d="M120.344 361.268H78.4414V361.494H120.344V361.268Z" fill="#E0E0E0"/>
<path d="M265.277 355.225H245.707V355.451H265.277V355.225Z" fill="#E0E0E0"/>
<path d="M298.644 355.225H273.34V355.451H298.644V355.225Z" fill="#E0E0E0"/>
<path d="M420.682 359.057H364.111V359.283H420.682V359.057Z" fill="#E0E0E0"/>
<path d="M211.468 79.4107H169.729L172.012 53.3994H213.742L211.468 79.4107Z" fill="#EBEBEB"/>
<path d="M212.311 49.8662L211.17 63.4471L210.028 79.7733H169.893L172.176 49.8662H212.311Z" fill="#FAFAFA"/>
<path d="M208.48 53.3998L210.754 79.4111H169.023L166.74 53.3998H170.292L171.524 51.4429H182.767L184.38 53.3998H208.48Z" fill="#E0E0E0"/>
<path d="M276.156 85.2183H231.744V129.63H276.156V85.2183Z" fill="#EBEBEB"/>
<path d="M277.289 85.2183H276.156V129.63H277.289V85.2183Z" fill="#E0E0E0"/>
<path d="M272.044 89.3315H235.84V125.535H272.044V89.3315Z" fill="#F5F5F5"/>
<path d="M236.185 89.3315H235.85V125.535H236.185V89.3315Z" fill="#E0E0E0"/>
<path d="M254.286 112.661C258.184 112.661 261.344 108.637 261.344 103.674C261.344 98.7099 258.184 94.686 254.286 94.686C250.388 94.686 247.229 98.7099 247.229 103.674C247.229 108.637 250.388 112.661 254.286 112.661Z" fill="#E0E0E0"/>
<path d="M250.599 117.209H258.037V109.771H250.599V117.209Z" fill="#E0E0E0"/>
<path d="M267.694 125.535H240.442V122.998C240.442 120.682 241.362 118.461 243 116.823C244.638 115.185 246.859 114.265 249.176 114.265H258.997C261.313 114.265 263.534 115.185 265.172 116.823C266.81 118.461 267.73 120.682 267.73 122.998V125.535H267.694Z" fill="#E0E0E0"/>
<path d="M239.764 110.423C239.764 111.9 242.482 113.141 242.482 113.141C242.482 113.141 245.2 111.936 245.2 110.423C245.2 109.717 244.221 109.318 243.578 109.517C243.332 109.603 243.105 109.737 242.91 109.911C242.716 110.085 242.558 110.296 242.446 110.532C242.099 110.065 241.641 109.691 241.114 109.445C240.959 109.391 240.794 109.375 240.632 109.398C240.469 109.422 240.316 109.485 240.183 109.581C240.05 109.677 239.943 109.804 239.87 109.951C239.797 110.097 239.761 110.259 239.764 110.423Z" fill="#E0E0E0"/>
<path d="M263.881 103.819C263.881 105.767 267.406 107.343 267.406 107.343C267.406 107.343 270.93 105.767 270.93 103.819C270.93 102.913 269.625 102.378 268.801 102.614C268.179 102.862 267.679 103.343 267.406 103.955C266.946 103.344 266.346 102.853 265.657 102.523C265.453 102.451 265.234 102.429 265.02 102.461C264.806 102.492 264.603 102.575 264.428 102.703C264.253 102.83 264.112 102.999 264.016 103.193C263.921 103.388 263.875 103.602 263.881 103.819Z" fill="#E0E0E0"/>
<path d="M186.373 325.544C186.79 328.162 188.684 330.418 188.829 333.063C188.946 335.138 187.977 337.086 187.497 339.107C187.017 341.127 187.252 343.636 189.019 344.706C189.662 345.032 190.38 345.182 191.1 345.139C191.819 345.096 192.515 344.862 193.114 344.461C194.297 343.642 195.274 342.56 195.968 341.299C198.747 336.807 200.265 331.649 200.362 326.368C200.362 324.148 200.135 321.793 198.831 320.026C194.79 314.382 185.34 319.02 186.373 325.544Z" fill="#F5F5F5"/>
<path d="M183.011 318.613C183.401 319.039 183.908 319.339 184.47 319.474C184.809 319.584 185.171 319.606 185.521 319.538C185.871 319.47 186.199 319.314 186.472 319.084C186.68 318.817 186.828 318.508 186.906 318.178C186.984 317.848 186.991 317.505 186.925 317.173C186.869 316.338 186.584 315.536 186.1 314.853C185.857 314.517 185.535 314.246 185.162 314.064C184.789 313.882 184.377 313.796 183.962 313.811C183.548 313.845 183.159 314.021 182.859 314.308C182.558 314.595 182.366 314.976 182.313 315.388C182.212 316.509 182.456 317.634 183.011 318.613Z" fill="#F5F5F5"/>
<path d="M190.54 313.168C190.355 312.882 190.089 312.656 189.777 312.519C189.464 312.382 189.119 312.34 188.782 312.398C188.45 312.472 188.147 312.645 187.915 312.894C187.682 313.143 187.53 313.456 187.478 313.793C187.463 314.013 187.463 314.234 187.478 314.455C187.481 314.811 187.521 315.166 187.595 315.515C187.671 315.851 187.83 316.162 188.058 316.421C188.368 316.723 188.763 316.925 189.19 317.001C189.454 317.064 189.73 317.062 189.993 316.996C190.257 316.93 190.5 316.801 190.703 316.62C190.883 316.4 191.018 316.147 191.099 315.875C191.18 315.603 191.205 315.317 191.174 315.034C191.153 314.363 190.933 313.713 190.54 313.168Z" fill="#F5F5F5"/>
<path d="M194.736 312.942C194.587 312.668 194.345 312.457 194.054 312.348C193.763 312.238 193.442 312.236 193.15 312.344C192.865 312.462 192.614 312.649 192.418 312.888C192.222 313.126 192.088 313.409 192.027 313.712C192.027 313.911 191.972 314.11 191.963 314.31C191.958 314.639 191.994 314.968 192.072 315.288C192.137 315.604 192.302 315.89 192.543 316.104C192.8 316.319 193.116 316.451 193.449 316.484C193.666 316.511 193.887 316.49 194.095 316.422C194.303 316.355 194.494 316.243 194.654 316.095C195.006 315.694 195.2 315.178 195.198 314.645C195.238 314.042 195.075 313.442 194.736 312.942Z" fill="#F5F5F5"/>
<path d="M198.477 313.811C198.033 313.15 197.571 313.104 197.063 313.385C196.612 313.715 196.292 314.193 196.157 314.735C196.106 314.91 196.07 315.089 196.048 315.27C195.999 315.57 195.999 315.876 196.048 316.176C196.108 316.466 196.276 316.722 196.52 316.891C196.744 317.032 197.008 317.095 197.272 317.073C197.614 317.042 197.935 316.891 198.178 316.647C198.511 316.289 198.723 315.836 198.785 315.351C198.877 314.817 198.767 314.269 198.477 313.811Z" fill="#F5F5F5"/>
<path d="M199.211 317.481C199.161 317.695 199.161 317.918 199.211 318.133C199.229 318.243 199.274 318.347 199.342 318.435C199.41 318.524 199.499 318.594 199.601 318.64C199.786 318.683 199.979 318.669 200.157 318.601C200.334 318.533 200.487 318.415 200.597 318.26C200.865 317.986 201.061 317.65 201.168 317.281C201.221 317.097 201.236 316.905 201.213 316.715C201.189 316.525 201.128 316.342 201.032 316.176C200.226 314.862 199.32 316.828 199.211 317.481Z" fill="#F5F5F5"/>
<path d="M199.944 386.056C200.551 383.918 200.904 381.571 200.098 379.496C197.606 373.037 187.314 375.093 186.635 381.671L199.944 386.056Z" fill="#F5F5F5"/>
<path d="M185.205 374.115C185.474 374.627 185.89 375.047 186.401 375.32C186.699 375.513 187.043 375.627 187.398 375.651C187.753 375.674 188.108 375.607 188.43 375.456C188.695 375.247 188.912 374.986 189.069 374.687C189.225 374.389 189.316 374.061 189.336 373.725C189.496 372.907 189.427 372.06 189.137 371.279C188.986 370.889 188.743 370.542 188.427 370.269C188.111 369.995 187.732 369.804 187.325 369.712C186.917 369.639 186.497 369.708 186.135 369.908C185.772 370.107 185.489 370.425 185.332 370.808C184.956 371.872 184.912 373.025 185.205 374.115Z" fill="#F5F5F5"/>
<path d="M193.883 370.772C193.775 370.448 193.576 370.162 193.309 369.95C193.042 369.738 192.719 369.608 192.379 369.576C192.038 369.564 191.702 369.655 191.413 369.835C191.124 370.016 190.896 370.279 190.757 370.59C190.677 370.797 190.611 371.009 190.558 371.225C190.466 371.568 190.412 371.92 190.395 372.276C190.372 372.629 190.444 372.983 190.603 373.299C190.818 373.661 191.133 373.954 191.509 374.142C191.748 374.269 192.014 374.335 192.284 374.335C192.554 374.335 192.82 374.269 193.058 374.142C193.296 373.981 193.499 373.773 193.654 373.532C193.81 373.291 193.915 373.021 193.964 372.738C194.127 372.088 194.099 371.405 193.883 370.772Z" fill="#F5F5F5"/>
<path d="M197.96 371.632C197.886 371.334 197.71 371.071 197.461 370.89C197.212 370.71 196.908 370.623 196.601 370.644C196.295 370.688 196.004 370.806 195.753 370.988C195.502 371.169 195.299 371.409 195.161 371.686C195.079 371.867 195.006 372.051 194.943 372.239C194.841 372.547 194.781 372.867 194.762 373.19C194.744 373.509 194.827 373.826 194.998 374.096C195.198 374.38 195.484 374.592 195.813 374.703C196.017 374.786 196.236 374.822 196.455 374.809C196.675 374.797 196.889 374.736 197.082 374.631C197.526 374.339 197.849 373.894 197.988 373.381C198.171 372.811 198.162 372.196 197.96 371.632Z" fill="#F5F5F5"/>
<path d="M201.349 373.435C201.095 372.674 200.615 372.529 200.099 372.656C199.571 372.852 199.128 373.227 198.848 373.716C198.758 373.874 198.676 374.038 198.604 374.205C198.493 374.477 198.425 374.764 198.404 375.057C198.387 375.349 198.481 375.637 198.667 375.863C198.847 376.058 199.085 376.189 199.347 376.235C199.686 376.301 200.037 376.239 200.334 376.063C200.743 375.8 201.059 375.417 201.24 374.966C201.461 374.486 201.5 373.942 201.349 373.435Z" fill="#F5F5F5"/>
<path d="M201.132 377.168C201.021 377.359 200.956 377.573 200.942 377.793C200.933 377.904 200.95 378.015 200.993 378.117C201.035 378.22 201.102 378.31 201.186 378.382C201.354 378.471 201.544 378.507 201.733 378.488C201.921 378.469 202.1 378.394 202.246 378.273C202.574 378.075 202.851 377.802 203.053 377.476C203.151 377.311 203.215 377.129 203.241 376.939C203.268 376.749 203.256 376.556 203.207 376.371C202.736 374.894 201.422 376.579 201.132 377.168Z" fill="#F5F5F5"/>
<path d="M164.231 347.596C164.566 350.232 163.325 352.923 163.959 355.505C164.421 357.526 165.898 359.129 166.913 360.941C167.927 362.753 168.408 365.218 166.994 366.74C166.469 367.233 165.822 367.577 165.12 367.737C164.417 367.896 163.685 367.864 162.999 367.646C161.635 367.178 160.396 366.407 159.375 365.39C155.462 361.843 152.576 357.309 151.021 352.262C150.369 350.133 149.97 347.804 150.731 345.711C153.114 339.197 163.425 341.046 164.231 347.596Z" fill="#F5F5F5"/>
<path d="M165.507 340.022C165.252 340.537 164.848 340.963 164.347 341.245C164.053 341.447 163.712 341.57 163.356 341.602C163.001 341.634 162.643 341.573 162.318 341.426C162.042 341.228 161.812 340.972 161.645 340.677C161.478 340.381 161.376 340.052 161.348 339.714C161.173 338.897 161.224 338.049 161.493 337.259C161.64 336.864 161.882 336.511 162.198 336.233C162.515 335.955 162.895 335.759 163.305 335.664C163.711 335.582 164.134 335.641 164.501 335.832C164.869 336.024 165.16 336.335 165.326 336.715C165.579 337.558 165.896 339.197 165.507 340.022Z" fill="#F5F5F5"/>
<path d="M156.8 336.86C156.9 336.533 157.093 336.243 157.355 336.024C157.617 335.805 157.938 335.667 158.277 335.628C158.617 335.61 158.955 335.695 159.248 335.871C159.54 336.047 159.773 336.306 159.917 336.615C160.004 336.818 160.077 337.027 160.134 337.24C160.232 337.58 160.293 337.929 160.315 338.282C160.348 338.638 160.282 338.995 160.125 339.315C159.924 339.703 159.607 340.02 159.219 340.221C158.986 340.358 158.723 340.435 158.452 340.446C158.182 340.457 157.913 340.402 157.67 340.285C157.433 340.124 157.231 339.918 157.076 339.679C156.92 339.439 156.814 339.171 156.764 338.889C156.567 338.225 156.58 337.517 156.8 336.86Z" fill="#F5F5F5"/>
<path d="M152.707 337.802C152.773 337.498 152.947 337.228 153.197 337.042C153.447 336.855 153.755 336.765 154.066 336.788C154.372 336.825 154.664 336.936 154.918 337.111C155.172 337.286 155.38 337.52 155.524 337.793C155.611 337.972 155.687 338.157 155.751 338.346C155.862 338.652 155.932 338.972 155.959 339.297C155.977 339.615 155.898 339.931 155.733 340.203C155.539 340.49 155.26 340.709 154.935 340.828C154.734 340.916 154.515 340.957 154.296 340.949C154.077 340.941 153.862 340.884 153.667 340.783C153.224 340.497 152.901 340.059 152.761 339.551C152.551 338.99 152.531 338.375 152.707 337.802Z" fill="#F5F5F5"/>
<path d="M149.354 339.677C149.599 338.916 150.07 338.771 150.595 338.871C151.127 339.059 151.576 339.428 151.864 339.913C151.959 340.067 152.043 340.228 152.117 340.393C152.239 340.659 152.313 340.944 152.335 341.236C152.363 341.529 152.276 341.822 152.09 342.051C151.915 342.249 151.679 342.382 151.42 342.432C151.081 342.507 150.727 342.455 150.423 342.287C150.003 342.034 149.67 341.657 149.472 341.209C149.249 340.729 149.207 340.185 149.354 339.677Z" fill="#F5F5F5"/>
<path d="M149.661 343.374C149.773 343.565 149.844 343.778 149.869 343.999C149.879 344.11 149.863 344.222 149.822 344.326C149.781 344.43 149.717 344.522 149.633 344.597C149.465 344.686 149.275 344.726 149.085 344.709C148.896 344.693 148.715 344.623 148.564 344.506C148.232 344.318 147.952 344.05 147.749 343.727C147.646 343.565 147.578 343.383 147.548 343.192C147.518 343.002 147.528 342.808 147.577 342.622C148.003 341.163 149.352 342.821 149.661 343.374Z" fill="#F5F5F5"/>
<path d="M141.997 130.093C139.912 130.386 137.786 130.054 135.89 129.139C133.994 128.225 132.411 126.768 131.342 124.954C130.274 123.14 129.767 121.049 129.886 118.947C130.006 116.845 130.746 114.826 132.013 113.144C133.28 111.462 135.017 110.194 137.005 109.5C138.993 108.806 141.142 108.717 143.181 109.244C145.219 109.772 147.055 110.892 148.457 112.463C149.859 114.034 150.764 115.985 151.057 118.07C151.444 120.865 150.709 123.7 149.01 125.953C147.312 128.206 144.79 129.695 141.997 130.093ZM139.84 114.6C138.862 114.735 137.946 115.157 137.207 115.813C136.469 116.468 135.942 117.328 135.692 118.284C135.442 119.239 135.482 120.248 135.805 121.181C136.129 122.114 136.722 122.93 137.509 123.526C138.297 124.122 139.243 124.471 140.229 124.529C141.215 124.587 142.196 124.351 143.048 123.851C143.9 123.352 144.584 122.61 145.015 121.722C145.445 120.833 145.603 119.836 145.467 118.858C145.282 117.549 144.587 116.366 143.532 115.568C142.478 114.77 141.151 114.422 139.84 114.6Z" fill="#E0E0E0"/>
<path d="M138.006 87.7942L134.004 88.353L137.599 114.096L141.601 113.537L138.006 87.7942Z" fill="#E0E0E0"/>
<path d="M141.392 84.2113L133.885 85.2729L134.45 89.2733L141.958 88.2117L141.392 84.2113Z" fill="#E0E0E0"/>
<path d="M142.009 89.6537L134.947 90.6387L135.505 94.6407L142.567 93.6558L142.009 89.6537Z" fill="#E0E0E0"/>
<path d="M143.038 96.9088L136.873 97.7686L137.431 101.771L143.596 100.911L143.038 96.9088Z" fill="#E0E0E0"/>
<path d="M226.5 400.986C323.517 400.986 402.165 396.395 402.165 390.731C402.165 385.066 323.517 380.475 226.5 380.475C129.484 380.475 50.8359 385.066 50.8359 390.731C50.8359 396.395 129.484 400.986 226.5 400.986Z" fill="#F5F5F5"/>
<path d="M133.609 220.408C141.962 211.682 141.015 197.221 131.494 188.107C121.974 178.993 107.485 178.678 99.1318 187.403C90.779 196.128 91.7258 210.59 101.246 219.704C110.767 228.818 125.256 229.133 133.609 220.408Z" fill="#5F08B1"/>
<g opacity="0.8">
<path d="M133.609 220.408C141.962 211.682 141.015 197.221 131.494 188.107C121.974 178.993 107.485 178.678 99.1318 187.403C90.779 196.128 91.7258 210.59 101.246 219.704C110.767 228.818 125.256 229.133 133.609 220.408Z" fill="white"/>
</g>
<path d="M105.722 189.571C105.532 189.571 105.347 189.512 105.193 189.4C105.038 189.289 104.923 189.132 104.863 188.952C104.803 188.772 104.801 188.577 104.858 188.395C104.914 188.214 105.027 188.055 105.179 187.941C108.23 185.751 111.907 184.607 115.661 184.679C115.902 184.679 116.132 184.774 116.302 184.944C116.472 185.114 116.567 185.345 116.567 185.585C116.567 185.825 116.472 186.056 116.302 186.226C116.132 186.396 115.902 186.491 115.661 186.491C112.298 186.417 109.002 187.434 106.266 189.39C106.109 189.508 105.918 189.571 105.722 189.571Z" fill="#5F08B1"/>
<path d="M110.007 220.738C109.858 220.737 109.712 220.7 109.581 220.629C106.804 219.144 104.395 217.057 102.53 214.521C100.664 211.984 99.3897 209.063 98.7996 205.97C98.224 203.295 98.2505 200.525 98.8773 197.861C99.5041 195.197 100.715 192.706 102.424 190.568C102.577 190.383 102.798 190.267 103.038 190.245C103.278 190.222 103.516 190.296 103.701 190.45C103.886 190.604 104.002 190.825 104.025 191.065C104.047 191.304 103.973 191.543 103.819 191.728C102.276 193.663 101.183 195.918 100.621 198.328C100.058 200.738 100.039 203.244 100.566 205.662C101.109 208.489 102.276 211.16 103.981 213.48C105.686 215.799 107.887 217.709 110.424 219.071C110.601 219.166 110.741 219.318 110.822 219.502C110.903 219.687 110.921 219.893 110.872 220.088C110.823 220.283 110.711 220.457 110.553 220.581C110.394 220.705 110.199 220.773 109.998 220.774L110.007 220.738Z" fill="#5F08B1"/>
<path d="M119.076 223.102C117.048 223.093 115.034 222.769 113.105 222.142C112.992 222.105 112.887 222.046 112.796 221.969C112.705 221.891 112.63 221.796 112.576 221.69C112.522 221.583 112.489 221.467 112.479 221.348C112.47 221.229 112.484 221.109 112.521 220.996C112.558 220.882 112.617 220.777 112.694 220.686C112.772 220.595 112.867 220.52 112.973 220.466C113.079 220.412 113.196 220.379 113.315 220.37C113.434 220.36 113.553 220.375 113.667 220.411C119.239 222.223 124.802 221.209 128.924 217.693C131.015 215.848 132.596 213.494 133.513 210.86C134.43 208.225 134.653 205.399 134.161 202.654C134.122 202.414 134.181 202.168 134.324 201.971C134.466 201.774 134.682 201.641 134.922 201.603C135.162 201.564 135.408 201.623 135.605 201.766C135.802 201.908 135.934 202.124 135.973 202.364C136.522 205.415 136.273 208.556 135.249 211.482C134.225 214.408 132.461 217.019 130.129 219.061C127.057 221.704 123.128 223.141 119.076 223.102Z" fill="#5F08B1"/>
<path d="M134.315 200.335C134.123 200.334 133.936 200.272 133.781 200.158C133.626 200.044 133.512 199.884 133.454 199.701C132.621 197.128 131.256 194.759 129.449 192.747C127.641 190.735 125.432 189.125 122.963 188.022C122.741 187.926 122.568 187.746 122.479 187.522C122.391 187.298 122.395 187.047 122.491 186.826C122.588 186.605 122.768 186.431 122.992 186.343C123.216 186.255 123.466 186.259 123.687 186.355C126.391 187.564 128.811 189.327 130.79 191.531C132.769 193.735 134.263 196.33 135.175 199.148C135.25 199.376 135.23 199.625 135.122 199.839C135.013 200.053 134.824 200.215 134.596 200.289C134.504 200.317 134.41 200.332 134.315 200.335Z" fill="#5F08B1"/>
<path d="M120.037 186.998C119.967 187.008 119.897 187.008 119.828 186.998C118.465 186.681 117.07 186.52 115.67 186.518C115.429 186.518 115.199 186.423 115.029 186.253C114.859 186.083 114.764 185.852 114.764 185.612C114.764 185.372 114.859 185.141 115.029 184.971C115.199 184.802 115.429 184.706 115.67 184.706C117.195 184.711 118.715 184.89 120.2 185.241C120.44 185.268 120.659 185.39 120.81 185.58C120.96 185.769 121.029 186.011 121.001 186.251C120.974 186.491 120.852 186.711 120.662 186.861C120.473 187.011 120.232 187.08 119.991 187.053L120.037 186.998Z" fill="#5F08B1"/>
<path d="M104.055 208.642C103.87 208.643 103.689 208.587 103.537 208.482C103.384 208.376 103.268 208.227 103.203 208.054C102.354 205.861 102.055 203.494 102.333 201.16C102.611 198.825 103.458 196.594 104.798 194.663C106.065 192.833 107.762 191.342 109.739 190.322C111.717 189.301 113.916 188.782 116.141 188.81C116.381 188.81 116.612 188.906 116.782 189.076C116.951 189.245 117.047 189.476 117.047 189.716C117.047 189.956 116.951 190.187 116.782 190.357C116.612 190.527 116.381 190.622 116.141 190.622C114.207 190.599 112.298 191.05 110.578 191.934C108.858 192.818 107.381 194.11 106.275 195.696C105.099 197.397 104.36 199.36 104.121 201.414C103.883 203.468 104.152 205.549 104.907 207.474C104.989 207.698 104.978 207.947 104.878 208.164C104.778 208.381 104.596 208.55 104.372 208.633C104.267 208.654 104.16 208.657 104.055 208.642Z" fill="#5F08B1"/>
<path d="M118.425 218.989C115.709 218.898 113.055 218.153 110.689 216.817C108.323 215.481 106.315 213.594 104.835 211.315C104.725 211.115 104.694 210.881 104.75 210.659C104.805 210.438 104.942 210.245 105.133 210.12C105.325 209.996 105.556 209.948 105.781 209.986C106.006 210.025 106.209 210.147 106.348 210.328C107.663 212.355 109.448 214.035 111.55 215.228C113.652 216.42 116.01 217.088 118.425 217.177C118.665 217.177 118.895 217.273 119.065 217.443C119.235 217.612 119.331 217.843 119.331 218.083C119.331 218.323 119.235 218.554 119.065 218.724C118.895 218.894 118.665 218.989 118.425 218.989Z" fill="#5F08B1"/>
<path d="M121.812 218.599C121.605 218.605 121.402 218.54 121.237 218.415C121.072 218.29 120.955 218.112 120.906 217.911C120.848 217.678 120.886 217.431 121.01 217.226C121.134 217.02 121.334 216.872 121.567 216.815C128.915 215.003 130.817 208.561 130.21 203.614C129.422 197.163 124.33 190.631 116.113 190.622C115.873 190.622 115.642 190.527 115.472 190.357C115.302 190.187 115.207 189.956 115.207 189.716C115.207 189.476 115.302 189.245 115.472 189.075C115.642 188.906 115.873 188.81 116.113 188.81C125.381 188.81 131.125 196.149 132.013 203.397C132.919 210.871 128.996 216.833 122.002 218.572C121.94 218.588 121.876 218.597 121.812 218.599Z" fill="#5F08B1"/>
<path d="M112.434 195.623C112.263 195.622 112.095 195.572 111.951 195.479C111.806 195.386 111.691 195.254 111.619 195.098C111.517 194.881 111.505 194.631 111.587 194.405C111.669 194.179 111.837 193.995 112.054 193.893C113.443 193.279 114.948 192.97 116.466 192.987C116.706 192.987 116.937 193.082 117.107 193.252C117.277 193.422 117.372 193.653 117.372 193.893C117.372 194.133 117.277 194.364 117.107 194.534C116.937 194.704 116.706 194.799 116.466 194.799C115.216 194.8 113.98 195.069 112.842 195.587C112.711 195.63 112.571 195.643 112.434 195.623Z" fill="#5F08B1"/>
<path d="M118.261 214.767C115.966 214.73 113.73 214.037 111.818 212.768C109.905 211.5 108.396 209.709 107.47 207.61C105.595 203.524 106.147 199.256 108.947 196.176C109.109 196 109.335 195.895 109.574 195.885C109.814 195.875 110.048 195.96 110.224 196.122C110.401 196.284 110.505 196.51 110.515 196.749C110.526 196.989 110.44 197.222 110.279 197.399C109.153 198.672 108.44 200.257 108.233 201.944C108.025 203.631 108.335 205.341 109.119 206.849C109.92 208.679 111.241 210.233 112.917 211.319C114.594 212.405 116.553 212.974 118.551 212.955C120.062 212.944 121.537 212.496 122.799 211.665C124.061 210.834 125.056 209.655 125.663 208.271C126.345 206.639 126.551 204.846 126.256 203.101C125.96 201.357 125.177 199.731 123.996 198.414C123.918 198.323 123.859 198.219 123.823 198.106C123.786 197.992 123.772 197.873 123.781 197.755C123.79 197.636 123.823 197.52 123.877 197.414C123.93 197.308 124.005 197.214 124.095 197.136C124.186 197.059 124.29 197 124.404 196.963C124.517 196.927 124.636 196.912 124.755 196.922C124.873 196.931 124.989 196.963 125.095 197.017C125.201 197.071 125.295 197.146 125.373 197.236C126.779 198.814 127.709 200.758 128.054 202.843C128.398 204.928 128.144 207.068 127.321 209.014C126.577 210.712 125.359 212.159 123.813 213.181C122.267 214.203 120.458 214.757 118.605 214.776L118.261 214.767Z" fill="#5F08B1"/>
<path d="M122.075 196.42C121.904 196.421 121.736 196.371 121.595 196.275C120.065 195.291 118.286 194.763 116.467 194.753C116.226 194.753 115.996 194.658 115.826 194.488C115.656 194.318 115.561 194.088 115.561 193.847C115.561 193.607 115.656 193.377 115.826 193.207C115.996 193.037 116.226 192.941 116.467 192.941C118.631 192.949 120.747 193.578 122.564 194.753C122.728 194.859 122.853 195.016 122.922 195.199C122.99 195.382 122.997 195.582 122.942 195.77C122.887 195.957 122.773 196.122 122.616 196.239C122.46 196.356 122.27 196.42 122.075 196.42Z" fill="#5F08B1"/>
<path d="M117.781 210.681C116.723 210.674 115.679 210.435 114.722 209.981C113.766 209.527 112.92 208.869 112.246 208.054C111.375 207.057 110.809 205.831 110.617 204.521C110.424 203.212 110.612 201.875 111.158 200.67C111.646 199.576 112.445 198.649 113.455 198.005C114.464 197.36 115.641 197.027 116.839 197.046C117.079 197.046 117.31 197.141 117.48 197.311C117.65 197.481 117.745 197.711 117.745 197.952C117.745 198.192 117.65 198.422 117.48 198.592C117.31 198.762 117.079 198.858 116.839 198.858C115.992 198.842 115.159 199.075 114.442 199.527C113.726 199.98 113.157 200.632 112.807 201.404C112.409 202.293 112.275 203.279 112.421 204.243C112.567 205.206 112.988 206.108 113.632 206.84C114.273 207.625 115.125 208.213 116.087 208.534C117.049 208.855 118.083 208.895 119.068 208.652C119.869 208.471 120.601 208.065 121.178 207.48C121.755 206.895 122.151 206.157 122.32 205.354C122.372 205.12 122.515 204.916 122.717 204.787C122.919 204.658 123.164 204.614 123.398 204.665C123.515 204.69 123.626 204.737 123.724 204.805C123.823 204.873 123.906 204.959 123.971 205.059C124.036 205.159 124.081 205.271 124.102 205.389C124.123 205.506 124.121 205.627 124.096 205.743C123.856 206.877 123.297 207.919 122.485 208.745C121.673 209.572 120.641 210.149 119.512 210.409C118.948 210.568 118.367 210.66 117.781 210.681Z" fill="#5F08B1"/>
<path d="M123.054 203.505C122.854 203.514 122.657 203.457 122.493 203.343C122.329 203.228 122.208 203.062 122.148 202.871C121.786 201.736 121.08 200.742 120.127 200.027C119.173 199.313 118.021 198.913 116.83 198.885C116.59 198.885 116.359 198.789 116.189 198.619C116.019 198.449 115.924 198.219 115.924 197.979C115.924 197.738 116.019 197.508 116.189 197.338C116.359 197.168 116.59 197.073 116.83 197.073C118.405 197.108 119.93 197.633 121.193 198.574C122.457 199.516 123.395 200.828 123.879 202.328C123.915 202.441 123.929 202.561 123.919 202.68C123.909 202.799 123.876 202.915 123.821 203.021C123.767 203.127 123.691 203.221 123.6 203.298C123.509 203.375 123.403 203.433 123.29 203.469C123.213 203.492 123.134 203.504 123.054 203.505Z" fill="#5F08B1"/>
<path d="M118.026 206.912C117.786 206.912 117.555 206.816 117.385 206.647C117.215 206.477 117.12 206.246 117.12 206.006C117.12 205.766 117.215 205.535 117.385 205.365C117.555 205.195 117.786 205.1 118.026 205.1C118.15 205.1 118.272 205.075 118.386 205.026C118.499 204.977 118.602 204.906 118.687 204.816C118.772 204.726 118.837 204.619 118.879 204.503C118.921 204.387 118.939 204.263 118.932 204.14C118.937 203.963 118.907 203.788 118.843 203.623C118.779 203.458 118.684 203.308 118.561 203.181C118.439 203.053 118.293 202.952 118.131 202.881C117.969 202.811 117.795 202.774 117.618 202.771C117.485 202.775 117.355 202.805 117.233 202.859C117.112 202.914 117.003 202.992 116.912 203.089C116.819 203.198 116.749 203.325 116.705 203.462C116.661 203.599 116.645 203.743 116.658 203.886C116.665 204.005 116.649 204.124 116.61 204.237C116.571 204.349 116.51 204.453 116.431 204.542C116.352 204.632 116.256 204.704 116.149 204.756C116.042 204.809 115.925 204.839 115.806 204.846C115.687 204.853 115.568 204.837 115.455 204.798C115.343 204.759 115.239 204.698 115.15 204.619C115.061 204.54 114.988 204.444 114.936 204.337C114.884 204.23 114.853 204.114 114.846 203.995C114.814 203.614 114.86 203.232 114.981 202.87C115.102 202.508 115.295 202.175 115.55 201.89C115.804 201.606 116.114 201.377 116.461 201.217C116.807 201.057 117.183 200.969 117.564 200.959C117.979 200.961 118.389 201.044 118.771 201.205C119.154 201.366 119.5 201.601 119.791 201.897C120.082 202.193 120.311 202.543 120.465 202.928C120.619 203.313 120.696 203.725 120.69 204.14C120.697 204.501 120.632 204.86 120.499 205.196C120.365 205.532 120.166 205.839 119.913 206.097C119.66 206.355 119.358 206.56 119.024 206.7C118.691 206.84 118.333 206.912 117.972 206.912H118.026Z" fill="#5F08B1"/>
<path d="M141.336 203.895C142.441 216.516 133.101 226.744 120.498 226.744H119.52C131.533 226.128 140.258 216.144 139.189 203.922C138.571 197.94 135.858 192.368 131.529 188.194C127.2 184.019 121.534 181.509 115.533 181.109C115.85 181.109 116.176 181.109 116.503 181.109C129.141 181.055 140.267 191.283 141.336 203.895Z" fill="#5F08B1"/>
<g opacity="0.4">
<path d="M141.336 203.895C142.441 216.516 133.101 226.744 120.498 226.744H119.52C131.533 226.128 140.258 216.144 139.189 203.922C138.571 197.94 135.858 192.368 131.529 188.194C127.2 184.019 121.534 181.509 115.533 181.109C115.85 181.109 116.176 181.109 116.503 181.109C129.141 181.055 140.267 191.283 141.336 203.895Z" fill="white"/>
</g>
<path d="M159.836 92.5389C159.858 92.8094 159.895 93.0785 159.945 93.3452C160.287 95.0909 161.183 96.6796 162.5 97.8752C163.992 99.2725 165.955 100.058 167.999 100.077H244.547C245.441 100.095 246.329 99.935 247.16 99.6066C247.991 99.2782 248.749 98.7878 249.389 98.1639C250.028 97.54 250.538 96.7951 250.887 95.9725C251.237 95.1499 251.419 94.2661 251.424 93.3724C251.437 93.1038 251.437 92.8347 251.424 92.566C251.21 90.5375 250.264 88.6565 248.763 87.2755C247.262 85.8944 245.309 85.1083 243.27 85.0644H166.703C165.744 85.045 164.791 85.23 163.908 85.6071C163.025 85.9843 162.233 86.545 161.583 87.2519C160.933 87.9588 160.442 88.7958 160.141 89.7074C159.839 90.6189 159.736 91.5841 159.836 92.5389Z" fill="#5F08B1"/>
<path opacity="0.8" d="M159.836 92.5389C159.858 92.8094 159.895 93.0785 159.945 93.3452C160.287 95.0909 161.183 96.6796 162.5 97.8752C163.992 99.2725 165.955 100.058 167.999 100.077H244.547C245.441 100.095 246.329 99.935 247.16 99.6066C247.991 99.2782 248.749 98.7878 249.389 98.1639C250.028 97.54 250.538 96.7951 250.887 95.9725C251.237 95.1499 251.419 94.2661 251.424 93.3724C251.437 93.1038 251.437 92.8347 251.424 92.566C251.21 90.5375 250.264 88.6565 248.763 87.2755C247.262 85.8944 245.309 85.1083 243.27 85.0644H166.703C165.744 85.045 164.791 85.23 163.908 85.6071C163.025 85.9843 162.233 86.545 161.583 87.2519C160.933 87.9588 160.442 88.7958 160.141 89.7074C159.839 90.6189 159.736 91.5841 159.836 92.5389Z" fill="white"/>
<path d="M251.424 93.3182C251.425 93.5608 251.407 93.8031 251.37 94.043C251.1 92.0604 250.129 90.2398 248.634 88.9105C247.138 87.5811 245.217 86.8307 243.216 86.795L161.83 86.9762C162.475 86.3486 163.238 85.8543 164.074 85.5216C164.911 85.1889 165.804 85.0244 166.704 85.0373H243.252C245.292 85.0813 247.245 85.8674 248.746 87.2484C250.247 88.6294 251.193 90.5105 251.406 92.539C251.425 92.7983 251.431 93.0583 251.424 93.3182Z" fill="#5F08B1"/>
<path opacity="0.5" d="M251.424 93.3182C251.425 93.5608 251.407 93.8031 251.37 94.043C251.1 92.0604 250.129 90.2398 248.634 88.9105C247.138 87.5811 245.217 86.8307 243.216 86.795L161.83 86.9762C162.475 86.3486 163.238 85.8543 164.074 85.5216C164.911 85.1889 165.804 85.0244 166.704 85.0373H243.252C245.292 85.0813 247.245 85.8674 248.746 87.2484C250.247 88.6294 251.193 90.5105 251.406 92.539C251.425 92.7983 251.431 93.0583 251.424 93.3182Z" fill="white"/>
<path d="M238.278 88.6615L238.604 92.2855L242.01 91.0171L242.817 92.8291L239.338 93.9888L241.838 97.0601L240.271 98.2108L237.834 95.0216L236.022 98.2108L234.309 97.0601L236.239 93.9888L232.615 92.8291L233.104 91.0171L236.774 92.2402L236.448 88.6162L238.278 88.6615Z" fill="#5F08B1"/>
<path d="M217.304 88.6612L217.631 92.2852L221.037 91.0168L221.852 92.8288L218.346 94.0156L220.847 97.087L219.289 98.2376L216.851 95.0485L215.039 98.2376L213.318 97.087L215.257 94.0156L211.633 92.856L212.122 91.044L215.791 92.2671L215.474 88.6431L217.304 88.6612Z" fill="#5F08B1"/>
<path d="M196.375 88.6612L196.692 92.2852L200.099 91.0168L200.914 92.8288L197.426 93.9885L199.927 97.0598L198.414 98.2376L195.976 95.0485L194.164 98.2376L192.452 97.087L194.382 94.0156L190.758 92.856L191.256 91.044L194.88 92.2671L194.563 88.6431L196.375 88.6612Z" fill="#5F08B1"/>
<path d="M175.438 88.6615L175.755 92.2855L179.171 91.0171L179.977 92.8291L176.489 93.9888L178.998 97.0601L177.431 98.2108L174.994 95.0216L173.182 98.2108L171.47 97.0601L173.399 93.9888L169.775 92.8291L170.265 91.0171L173.889 92.2402L173.572 88.6162L175.438 88.6615Z" fill="#5F08B1"/>
<path d="M226.183 81.4858H222.613V82.3918H226.183V81.4858Z" fill="#5F08B1"/>
<path d="M241.521 81.4858H229.879V82.3918H241.521V81.4858Z" fill="#5F08B1"/>
<path opacity="0.8" d="M360.397 115.279L356.692 157.644C356.549 158.996 355.918 160.25 354.917 161.17C353.917 162.091 352.615 162.615 351.256 162.645H321.838C321.201 162.648 320.571 162.518 319.988 162.261C319.405 162.005 318.883 161.628 318.456 161.156C318.028 160.684 317.705 160.128 317.507 159.522C317.31 158.917 317.242 158.277 317.308 157.644L321.013 115.27C321.151 113.916 321.78 112.659 322.781 111.737C323.783 110.816 325.088 110.293 326.449 110.269H355.867C356.505 110.266 357.136 110.397 357.719 110.654C358.303 110.911 358.825 111.288 359.253 111.761C359.68 112.234 360.003 112.792 360.201 113.398C360.398 114.004 360.465 114.645 360.397 115.279Z" fill="#5F08B1"/>
<path opacity="0.8" d="M360.397 115.279L356.692 157.644C356.549 158.996 355.918 160.25 354.917 161.17C353.917 162.091 352.615 162.615 351.256 162.645H321.838C321.201 162.648 320.571 162.518 319.988 162.261C319.405 162.005 318.883 161.628 318.456 161.156C318.028 160.684 317.705 160.128 317.507 159.522C317.31 158.917 317.242 158.277 317.308 157.644L321.013 115.27C321.151 113.916 321.78 112.659 322.781 111.737C323.783 110.816 325.088 110.293 326.449 110.269H355.867C356.505 110.266 357.136 110.397 357.719 110.654C358.303 110.911 358.825 111.288 359.253 111.761C359.68 112.234 360.003 112.792 360.201 113.398C360.398 114.004 360.465 114.645 360.397 115.279Z" fill="white"/>
<path d="M323.694 122.11H323.613C323.374 122.09 323.153 121.975 322.998 121.791C322.844 121.608 322.768 121.371 322.788 121.132L323.133 117.254C323.153 117.028 323.257 116.818 323.425 116.666C323.593 116.513 323.812 116.429 324.039 116.43H328.134C328.374 116.43 328.604 116.525 328.774 116.695C328.944 116.865 329.04 117.095 329.04 117.336C329.04 117.576 328.944 117.806 328.774 117.976C328.604 118.146 328.374 118.242 328.134 118.242H324.872L324.6 121.286C324.58 121.512 324.476 121.722 324.308 121.874C324.14 122.027 323.921 122.111 323.694 122.11Z" fill="#5F08B1"/>
<path d="M356.637 122.11H356.556C356.317 122.09 356.096 121.975 355.941 121.791C355.787 121.608 355.711 121.371 355.731 121.132L355.985 118.242H352.886C352.646 118.242 352.416 118.146 352.246 117.976C352.076 117.806 351.98 117.576 351.98 117.336C351.98 117.095 352.076 116.865 352.246 116.695C352.416 116.525 352.646 116.43 352.886 116.43H356.963C357.09 116.429 357.214 116.455 357.33 116.506C357.446 116.556 357.549 116.63 357.635 116.723C357.72 116.816 357.785 116.926 357.825 117.045C357.866 117.165 357.881 117.292 357.869 117.417L357.525 121.286C357.505 121.509 357.403 121.716 357.239 121.868C357.075 122.021 356.861 122.107 356.637 122.11Z" fill="#5F08B1"/>
<path d="M325.253 151.347H321.158C321.034 151.347 320.911 151.321 320.797 151.271C320.683 151.221 320.581 151.148 320.497 151.057C320.412 150.965 320.347 150.856 320.307 150.738C320.266 150.619 320.251 150.493 320.261 150.369L320.596 146.491C320.617 146.251 320.732 146.028 320.916 145.873C321.1 145.717 321.339 145.642 321.579 145.662C321.82 145.682 322.042 145.797 322.197 145.982C322.353 146.166 322.429 146.405 322.408 146.645L322.155 149.535H325.253C325.493 149.535 325.724 149.631 325.894 149.8C326.064 149.97 326.159 150.201 326.159 150.441C326.159 150.681 326.064 150.912 325.894 151.082C325.724 151.252 325.493 151.347 325.253 151.347Z" fill="#5F08B1"/>
<path d="M354.074 151.347H349.988C349.748 151.347 349.517 151.252 349.347 151.082C349.177 150.912 349.082 150.682 349.082 150.441C349.082 150.201 349.177 149.971 349.347 149.801C349.517 149.631 349.748 149.535 349.988 149.535H353.25L353.512 146.491C353.533 146.252 353.648 146.031 353.831 145.877C354.015 145.722 354.252 145.647 354.491 145.667C354.73 145.688 354.951 145.802 355.105 145.986C355.26 146.169 355.335 146.406 355.315 146.645L354.98 150.523C354.96 150.749 354.855 150.959 354.688 151.111C354.52 151.264 354.301 151.348 354.074 151.347Z" fill="#5F08B1"/>
<path d="M350.954 136.74C352.999 128.808 349.489 121.045 343.112 119.401C336.736 117.757 329.909 122.854 327.864 130.785C325.818 138.717 329.329 146.479 335.705 148.124C342.082 149.768 348.909 144.671 350.954 136.74Z" fill="white"/>
<path d="M342.965 156.312H331.232L332.256 144.579H343.989L342.965 156.312Z" fill="white"/>
<path d="M356.692 157.644C356.549 158.996 355.918 160.25 354.917 161.17C353.917 162.091 352.615 162.615 351.256 162.645H321.838C321.201 162.649 320.571 162.518 319.988 162.261C319.405 162.005 318.883 161.628 318.456 161.156C318.028 160.684 317.705 160.128 317.507 159.523C317.31 158.917 317.242 158.277 317.308 157.644C317.308 157.644 330.825 153.368 332.492 153.368H342.938L356.692 157.644Z" fill="white"/>
<path d="M362.105 127.66L360.734 144.301L361.637 144.376L363.008 127.734L362.105 127.66Z" fill="#5F08B1"/>
<path d="M363.058 120.045L362.789 123.314L363.692 123.388L363.961 120.12L363.058 120.045Z" fill="#5F08B1"/>
<path d="M331.488 221.127H327.918V222.033H331.488V221.127Z" fill="#5F08B1"/>
<path d="M346.828 221.127H335.186V222.033H346.828V221.127Z" fill="#5F08B1"/>
<path d="M368.135 205.662L365.879 231.483C365.762 232.624 365.231 233.683 364.386 234.459C363.541 235.235 362.442 235.675 361.295 235.696C360.755 235.705 360.219 235.6 359.723 235.387C359.228 235.173 358.783 234.857 358.419 234.458C358.054 234.06 357.779 233.589 357.611 233.076C357.443 232.563 357.386 232.02 357.444 231.483L359.682 205.662C359.89 203.736 359.687 201.788 359.085 199.947C358.483 198.106 357.496 196.414 356.191 194.983C354.885 193.552 353.29 192.415 351.511 191.648C349.733 190.88 347.811 190.5 345.874 190.532H336.67C332.553 190.61 328.606 192.191 325.576 194.979C322.545 197.766 320.638 201.566 320.217 205.662L319.311 216.208H310.885L311.791 205.662C312.923 192.67 324.42 182.106 337.403 182.106H346.645C349.66 182.056 352.651 182.648 355.42 183.843C358.189 185.038 360.672 186.808 362.704 189.036C364.736 191.263 366.272 193.898 367.208 196.765C368.144 199.631 368.46 202.664 368.135 205.662Z" fill="#5F08B1"/>
<g opacity="0.5">
<path d="M368.135 205.662L365.879 231.483C365.762 232.624 365.231 233.683 364.386 234.459C363.541 235.235 362.442 235.675 361.295 235.696C360.755 235.705 360.219 235.6 359.723 235.387C359.228 235.173 358.783 234.857 358.419 234.458C358.054 234.06 357.779 233.589 357.611 233.076C357.443 232.563 357.386 232.02 357.444 231.483L359.682 205.662C359.89 203.736 359.687 201.788 359.085 199.947C358.483 198.106 357.496 196.414 356.191 194.983C354.885 193.552 353.29 192.415 351.511 191.648C349.733 190.88 347.811 190.5 345.874 190.532H336.67C332.553 190.61 328.606 192.191 325.576 194.979C322.545 197.766 320.638 201.566 320.217 205.662L319.311 216.208H310.885L311.791 205.662C312.923 192.67 324.42 182.106 337.403 182.106H346.645C349.66 182.056 352.651 182.648 355.42 183.843C358.189 185.038 360.672 186.808 362.704 189.036C364.736 191.263 366.272 193.898 367.208 196.765C368.144 199.631 368.46 202.664 368.135 205.662Z" fill="white"/>
</g>
<path d="M368.743 230.541L364.349 280.86C364.189 282.42 363.463 283.868 362.307 284.928C361.152 285.988 359.647 286.588 358.079 286.613H307.76C307.023 286.627 306.292 286.483 305.614 286.192C304.937 285.9 304.33 285.468 303.833 284.924C303.336 284.38 302.96 283.736 302.731 283.035C302.502 282.334 302.425 281.593 302.505 280.86L306.908 230.541C307.01 229.538 307.346 228.572 307.891 227.724C308.436 226.875 309.173 226.167 310.043 225.658C310.988 225.079 312.071 224.766 313.178 224.752H363.488C364.516 224.746 365.524 225.032 366.396 225.576C367.21 226.104 367.861 226.848 368.275 227.725C368.69 228.602 368.852 229.577 368.743 230.541Z" fill="#5F08B1"/>
<path d="M316.422 252.52L329.495 272.642L372.612 229.526C372.679 229.446 372.714 229.345 372.713 229.241C372.711 229.137 372.672 229.037 372.603 228.959C372.534 228.881 372.439 228.83 372.336 228.816C372.233 228.802 372.129 228.826 372.041 228.883L330.954 261.091L323.19 248.579L316.422 252.52Z" fill="white"/>
<path d="M110.531 155.207H77.7518C76.2351 155.179 74.781 154.597 73.6642 153.571C72.5475 152.544 71.8454 151.144 71.6906 149.635L68.8548 116.874C68.7761 116.165 68.8496 115.447 69.0704 114.768C69.2912 114.089 69.6542 113.465 70.1353 112.938C70.6163 112.411 71.2042 111.992 71.8599 111.71C72.5156 111.428 73.2239 111.289 73.9375 111.302H106.68C108.191 111.336 109.638 111.922 110.747 112.948C111.857 113.974 112.553 115.37 112.705 116.874L115.568 149.617C115.649 150.324 115.579 151.04 115.362 151.718C115.145 152.395 114.787 153.019 114.31 153.548C113.834 154.077 113.251 154.498 112.599 154.784C111.947 155.07 111.242 155.214 110.531 155.207Z" fill="#5F08B1"/>
<path opacity="0.8" d="M110.531 155.207H77.7518C76.2351 155.179 74.781 154.597 73.6642 153.571C72.5475 152.544 71.8454 151.144 71.6906 149.635L68.8548 116.874C68.7761 116.165 68.8496 115.447 69.0704 114.768C69.2912 114.089 69.6542 113.465 70.1353 112.938C70.6163 112.411 71.2042 111.992 71.8599 111.71C72.5156 111.428 73.2239 111.289 73.9375 111.302H106.68C108.191 111.336 109.638 111.922 110.747 112.948C111.857 113.974 112.553 115.37 112.705 116.874L115.568 149.617C115.649 150.324 115.579 151.04 115.362 151.718C115.145 152.395 114.787 153.019 114.31 153.548C113.834 154.077 113.251 154.498 112.599 154.784C111.947 155.07 111.242 155.214 110.531 155.207Z" fill="white"/>
<path d="M71.709 136.562C71.709 136.562 83.3511 120.353 91.9218 120.77C100.493 121.187 114.735 136.172 114.735 136.172C114.735 136.172 93.7429 147.198 71.709 136.562Z" fill="white"/>
<path d="M72.0815 136.806L71.3477 136.28C71.8188 135.619 82.9173 120.29 91.5968 120.29H91.9501C100.611 120.706 114.473 135.22 115.062 135.837L114.41 136.462C114.265 136.317 100.204 121.594 91.9048 121.196H91.5968C83.3522 121.214 72.1902 136.67 72.0815 136.806Z" fill="#263238"/>
<path d="M70.5041 137.132C68.7465 137.132 66.4634 136.48 65.657 133.997C65.6199 133.883 65.6295 133.759 65.6839 133.652C65.7382 133.545 65.8329 133.464 65.9469 133.427C66.0034 133.407 66.0632 133.399 66.1229 133.403C66.1825 133.407 66.2408 133.423 66.2941 133.45C66.3474 133.477 66.3947 133.515 66.4331 133.56C66.4715 133.606 66.5003 133.659 66.5177 133.716C67.5596 136.924 71.4554 136.154 71.6185 136.117C71.736 136.096 71.8573 136.12 71.957 136.186C72.0566 136.252 72.1269 136.354 72.153 136.471C72.1649 136.529 72.1653 136.589 72.1539 136.648C72.1426 136.706 72.1199 136.762 72.0871 136.811C72.0543 136.861 72.012 136.904 71.9627 136.937C71.9134 136.97 71.858 136.993 71.7997 137.005C71.373 137.09 70.9391 137.132 70.5041 137.132Z" fill="#263238"/>
<path d="M77.416 130.174C77.3149 130.176 77.216 130.144 77.1352 130.084C76.9993 129.975 73.783 127.493 72.9676 124.965C72.9304 124.851 72.9401 124.726 72.9944 124.619C73.0488 124.512 73.1434 124.431 73.2575 124.394C73.3716 124.359 73.4948 124.37 73.6012 124.424C73.7076 124.478 73.789 124.571 73.8283 124.684C74.5621 126.94 77.6516 129.341 77.6878 129.359C77.7825 129.432 77.8443 129.54 77.8596 129.659C77.8749 129.778 77.8424 129.898 77.7694 129.993C77.7281 130.048 77.6748 130.093 77.6136 130.124C77.5524 130.156 77.4848 130.173 77.416 130.174Z" fill="#263238"/>
<path d="M84.0674 124.005C83.9487 123.998 83.8371 123.946 83.7547 123.861C83.6724 123.775 83.6255 123.661 83.6234 123.543C83.0944 121.569 82.4376 119.632 81.6574 117.744C81.4309 117.146 81.2678 116.711 81.2316 116.603C81.2135 116.545 81.2072 116.484 81.213 116.424C81.2188 116.364 81.2366 116.305 81.2653 116.252C81.294 116.199 81.3331 116.152 81.3802 116.114C81.4273 116.076 81.4815 116.048 81.5396 116.032C81.5967 116.015 81.6566 116.01 81.7157 116.016C81.7748 116.023 81.8321 116.041 81.8843 116.069C81.9364 116.098 81.9824 116.137 82.0197 116.183C82.0569 116.229 82.0847 116.283 82.1013 116.34C82.1013 116.449 82.2916 116.847 82.5 117.418C83.7684 120.743 84.5475 122.926 84.5294 123.561C84.5295 123.621 84.5174 123.68 84.494 123.735C84.4705 123.79 84.4362 123.84 84.393 123.881C84.3499 123.923 84.2988 123.955 84.2428 123.976C84.1868 123.997 84.1272 124.007 84.0674 124.005Z" fill="#263238"/>
<path d="M91.9211 121.223C91.8081 121.219 91.7002 121.175 91.6171 121.099C91.5339 121.022 91.481 120.918 91.4681 120.806L90.8339 113.558C90.8231 113.438 90.8604 113.318 90.9377 113.226C91.015 113.133 91.1259 113.075 91.2461 113.064C91.3662 113.054 91.4858 113.091 91.5784 113.168C91.671 113.245 91.7291 113.356 91.7399 113.477L92.3741 120.779C92.3818 120.897 92.3438 121.014 92.268 121.105C92.1921 121.196 92.0841 121.254 91.9664 121.268L91.9211 121.223Z" fill="#263238"/>
<path d="M116.093 136.634C115.65 136.636 115.208 136.6 114.771 136.525C114.712 136.514 114.657 136.49 114.608 136.457C114.558 136.424 114.516 136.381 114.483 136.331C114.45 136.282 114.428 136.226 114.416 136.168C114.405 136.109 114.405 136.049 114.417 135.991C114.427 135.932 114.449 135.876 114.481 135.827C114.513 135.777 114.555 135.734 114.604 135.701C114.653 135.668 114.708 135.645 114.767 135.634C114.825 135.623 114.885 135.624 114.943 135.638C114.943 135.638 117.163 136.063 118.522 135.103C118.812 134.891 119.055 134.62 119.233 134.308C119.411 133.996 119.52 133.649 119.554 133.291C119.563 133.231 119.584 133.174 119.615 133.123C119.646 133.071 119.687 133.026 119.735 132.991C119.783 132.955 119.838 132.929 119.897 132.914C119.955 132.9 120.016 132.897 120.075 132.906C120.135 132.915 120.192 132.935 120.244 132.966C120.295 132.997 120.34 133.038 120.376 133.087C120.412 133.135 120.437 133.19 120.452 133.248C120.466 133.307 120.469 133.367 120.46 133.427C120.406 133.904 120.252 134.364 120.008 134.777C119.765 135.191 119.437 135.549 119.047 135.828C118.167 136.389 117.137 136.67 116.093 136.634Z" fill="#263238"/>
<path d="M107.958 129.694C107.894 129.694 107.831 129.681 107.773 129.654C107.715 129.628 107.663 129.589 107.622 129.54C107.58 129.498 107.546 129.448 107.523 129.393C107.5 129.337 107.488 129.278 107.488 129.218C107.488 129.159 107.5 129.099 107.523 129.044C107.546 128.989 107.58 128.939 107.622 128.897C107.622 128.897 110.34 126.505 110.63 124.276C110.65 124.158 110.715 124.053 110.812 123.982C110.908 123.911 111.028 123.88 111.147 123.896C111.206 123.904 111.262 123.925 111.313 123.956C111.364 123.986 111.409 124.027 111.444 124.075C111.479 124.123 111.505 124.177 111.519 124.235C111.533 124.293 111.536 124.353 111.527 124.412C111.147 126.967 108.338 129.468 108.22 129.576C108.149 129.645 108.056 129.687 107.958 129.694Z" fill="#263238"/>
<path d="M100.302 124.43H100.221C100.103 124.408 99.9978 124.341 99.9285 124.243C99.8592 124.145 99.8307 124.024 99.8493 123.905C99.8493 123.851 100.846 118.025 101.027 116.829C101.036 116.77 101.057 116.712 101.088 116.661C101.119 116.609 101.159 116.564 101.208 116.529C101.256 116.493 101.311 116.467 101.37 116.453C101.428 116.438 101.489 116.435 101.548 116.444C101.608 116.453 101.665 116.474 101.716 116.505C101.768 116.536 101.813 116.576 101.848 116.625C101.884 116.673 101.91 116.728 101.925 116.786C101.939 116.845 101.942 116.906 101.933 116.965C101.752 118.17 100.764 124.005 100.755 124.059C100.736 124.164 100.68 124.26 100.597 124.328C100.514 124.396 100.41 124.432 100.302 124.43Z" fill="#263238"/>
<path d="M100.568 138.46C104.319 134.542 103.89 128.044 99.6109 123.947C95.3313 119.851 88.8214 119.706 85.0707 123.624C81.3199 127.542 81.7486 134.039 86.0281 138.136C90.3077 142.233 96.8176 142.378 100.568 138.46Z" fill="#5F08B1"/>
<path opacity="0.3" d="M97.0689 131.035C97.0824 130.806 97.0824 130.576 97.0689 130.346C96.9472 129.165 96.3969 128.07 95.5222 127.267C94.6474 126.464 93.5087 126.009 92.3214 125.989C91.7634 125.979 91.2097 126.088 90.6971 126.309C90.1846 126.53 89.7249 126.857 89.3487 127.269C88.9724 127.682 88.6883 128.169 88.515 128.7C88.3418 129.23 88.2836 129.792 88.3441 130.346C88.3591 130.58 88.4017 130.811 88.4709 131.035H82.5638C82.4194 129.729 82.5551 128.406 82.9618 127.157C83.3685 125.907 84.0369 124.758 84.9225 123.787C85.808 122.815 86.8904 122.044 88.0975 121.524C89.3045 121.004 90.6086 120.747 91.9228 120.77C94.7171 120.822 97.396 121.894 99.4539 123.785C101.512 125.676 102.807 128.255 103.094 131.035H97.0689Z" fill="black"/>
<path opacity="0.7" d="M97.0598 130.346C97.0733 130.576 97.0733 130.805 97.0598 131.035C96.9946 132.043 96.5428 132.988 95.7985 133.671C95.0541 134.355 94.0747 134.725 93.0643 134.704C91.9993 134.684 90.9704 134.314 90.1369 133.651C89.3033 132.988 88.7114 132.068 88.4528 131.035C88.3835 130.811 88.3409 130.58 88.3259 130.346C88.2654 129.791 88.3237 129.23 88.4969 128.7C88.6701 128.169 88.9543 127.681 89.3305 127.269C89.7067 126.857 90.1664 126.53 90.679 126.309C91.1915 126.088 91.7452 125.979 92.3033 125.988C93.4921 126.007 94.633 126.46 95.5097 127.263C96.3864 128.067 96.9379 129.164 97.0598 130.346Z" fill="black"/>
<path opacity="0.7" d="M99.4235 126.07C99.4724 126.522 99.4245 126.98 99.2831 127.412C99.1416 127.845 98.9098 128.242 98.6031 128.578C98.2963 128.914 97.9216 129.181 97.5038 129.36C97.0861 129.54 96.6348 129.63 96.18 129.622C95.2141 129.603 94.2886 129.231 93.5778 128.577C92.8669 127.923 92.4197 127.031 92.3204 126.07C92.27 125.618 92.3168 125.16 92.4577 124.727C92.5986 124.294 92.8304 123.896 93.1374 123.56C93.4445 123.223 93.8198 122.957 94.2382 122.777C94.6567 122.598 95.1087 122.509 95.5639 122.519C96.5304 122.536 97.4569 122.907 98.1682 123.561C98.8795 124.216 99.3261 125.109 99.4235 126.07Z" fill="white"/>
<path d="M85.3997 107.252H81.8301V108.158H85.3997V107.252Z" fill="#5F08B1"/>
<path d="M100.738 107.252H89.0957V108.158H100.738V107.252Z" fill="#5F08B1"/>
<path d="M250.055 173.635L250.363 174.007L250.78 174.487C251.079 174.804 251.369 175.139 251.686 175.447C252.311 176.099 252.991 176.734 253.679 177.377C255.055 178.646 256.498 179.84 258.001 180.956C259.532 182.097 261.145 183.139 262.757 184.172C263.663 184.661 264.406 185.178 265.258 185.649L267.224 186.736C267.51 186.862 267.831 186.881 268.13 186.79C268.764 186.6 272.406 182.994 273.566 181.653C276.139 178.709 280.035 174.831 282.137 171.533L284.483 174.768C283 178.808 281.032 182.653 278.621 186.219C277.325 188.147 275.771 189.888 274.001 191.393C272.938 192.288 271.739 193.007 270.449 193.522C268.814 194.174 267.018 194.31 265.303 193.911C264.86 193.803 264.426 193.658 264.008 193.477L263.192 193.123L261.725 192.453C260.737 192.018 259.786 191.492 258.825 191.012C256.905 189.988 255.042 188.859 253.244 187.633C251.432 186.387 249.693 185.037 248.035 183.592C247.174 182.84 246.404 182.079 245.616 181.255C245.226 180.847 244.828 180.421 244.447 179.977L243.885 179.289C243.677 179.035 243.523 178.845 243.242 178.455L250.055 173.635Z" fill="#FFB573"/>
<path d="M281.766 172.031L285.969 163.044L289.983 170.238C289.983 170.238 287.347 174.768 284.484 174.768L281.766 172.031Z" fill="#FFB573"/>
<path d="M290.735 159.311L294.975 164.765L290.019 170.228L286.006 163.044L290.735 159.311Z" fill="#FFB573"/>
<path d="M289.258 172.711H295.935C296.123 172.71 296.304 172.638 296.443 172.511C296.582 172.384 296.669 172.21 296.687 172.022L298.073 156.013C298.083 155.909 298.071 155.803 298.038 155.703C298.005 155.604 297.951 155.512 297.88 155.434C297.809 155.357 297.723 155.295 297.627 155.252C297.53 155.21 297.426 155.188 297.321 155.189H290.653C290.463 155.191 290.281 155.263 290.142 155.392C290.003 155.521 289.917 155.697 289.901 155.887L288.497 171.887C288.488 171.992 288.501 172.098 288.535 172.197C288.57 172.297 288.624 172.389 288.696 172.466C288.768 172.544 288.854 172.606 288.951 172.648C289.048 172.69 289.152 172.711 289.258 172.711Z" fill="#5F08B1"/>
<path opacity="0.3" d="M289.33 171.107H296.016L297.267 156.802H290.58L289.33 171.107Z" fill="white"/>
<path d="M288.895 169.078L290.082 168.471C290.686 168.164 291.244 167.773 291.74 167.311L291.958 166.523C291.831 166.313 291.64 166.15 291.413 166.057C291.186 165.964 290.936 165.946 290.698 166.007L289.711 166.278L284.809 166.65L284.691 168.715L286.123 170.926H286.612C287.152 170.945 287.68 170.769 288.099 170.429C288.519 170.089 288.802 169.61 288.895 169.078Z" fill="#FFB573"/>
<path d="M241.502 164.892C244.9 164.276 268.864 185.051 268.864 185.051L261.761 195.47C261.761 195.47 235.559 177.223 236.393 172.82C237.199 168.19 236.556 165.798 241.502 164.892Z" fill="#263238"/>
<path opacity="0.2" d="M244.528 171.533L244.266 182.405C246.984 184.516 256.805 192.045 256.805 192.045L244.528 171.533Z" fill="black"/>
<path d="M225.531 380.801L233.567 381.589L236.122 362.953L228.077 362.165L225.531 380.801Z" fill="#FFB573"/>
<path d="M146.41 271.447L144.354 279.275L161.74 286.767L165.346 278.822L146.41 271.447Z" fill="#FFB573"/>
<path d="M239.321 383.238C240.012 383.323 240.712 383.17 241.305 382.803C241.433 382.692 241.532 382.552 241.595 382.394C241.658 382.237 241.683 382.066 241.667 381.897C241.667 381.792 241.638 381.688 241.584 381.597C241.53 381.506 241.452 381.432 241.359 381.381C240.39 380.801 237.11 382.36 236.738 382.532C236.703 382.548 236.673 382.576 236.654 382.61C236.635 382.644 236.626 382.683 236.63 382.722C236.635 382.762 236.653 382.799 236.68 382.829C236.708 382.858 236.744 382.878 236.784 382.885C237.617 383.08 238.466 383.198 239.321 383.238ZM240.779 381.617C240.905 381.607 241.032 381.635 241.142 381.698C241.18 381.718 241.212 381.748 241.234 381.785C241.256 381.821 241.268 381.864 241.268 381.907C241.278 382.02 241.261 382.134 241.219 382.239C241.176 382.345 241.109 382.439 241.024 382.514C240.526 382.939 239.212 382.976 237.4 382.631C238.468 382.098 239.621 381.751 240.806 381.608L240.779 381.617Z" fill="#5F08B1"/>
<path d="M236.819 382.849H236.892C237.87 382.441 239.836 380.756 239.709 379.832C239.674 379.671 239.585 379.528 239.456 379.425C239.327 379.323 239.167 379.268 239.003 379.27C238.814 379.235 238.62 379.241 238.434 379.288C238.248 379.335 238.074 379.421 237.925 379.542C236.883 380.348 236.638 382.532 236.62 382.613C236.611 382.646 236.611 382.681 236.619 382.714C236.627 382.747 236.643 382.778 236.665 382.803C236.686 382.821 236.711 382.834 236.738 382.842C236.764 382.85 236.792 382.852 236.819 382.849ZM238.822 379.614H238.93C239.284 379.669 239.302 379.805 239.302 379.85C239.383 380.402 238.042 381.743 237.037 382.278C237.133 381.36 237.52 380.496 238.142 379.814C238.344 379.668 238.594 379.606 238.84 379.641L238.822 379.614Z" fill="#5F08B1"/>
<path d="M233.167 378.346L225.919 378.654C225.763 378.655 225.613 378.714 225.498 378.82C225.382 378.925 225.31 379.069 225.294 379.225L223.555 389.345C223.545 389.517 223.569 389.689 223.627 389.852C223.684 390.014 223.773 390.164 223.888 390.292C224.004 390.42 224.143 390.524 224.299 390.598C224.455 390.671 224.624 390.714 224.796 390.722H224.941C228.103 390.559 229.625 390.323 233.63 390.187C236.085 390.106 243.596 390.993 246.948 390.232C250.3 389.471 249.666 386.146 248.225 386.174C243.568 386.264 238.196 383.229 235.541 379.678C235.079 379.379 233.675 378.319 233.167 378.346Z" fill="#263238"/>
<path d="M148.049 280.299L151.746 274.02C151.829 273.887 151.86 273.728 151.832 273.573C151.803 273.419 151.717 273.281 151.592 273.186L144.054 266.237C143.774 266.04 143.427 265.959 143.089 266.014C142.75 266.068 142.446 266.252 142.242 266.527L142.16 266.654C140.584 269.372 139.959 270.804 137.902 274.237C136.634 276.348 131.796 282.21 130.654 285.408C129.513 288.607 132.611 289.938 133.372 288.688C135.827 284.72 141.291 281.857 145.73 281.513C146.156 281.35 147.796 280.742 148.049 280.299Z" fill="#263238"/>
<path opacity="0.2" d="M236.121 362.953L234.807 372.566L226.762 371.777L228.066 362.174L236.121 362.953Z" fill="black"/>
<path opacity="0.2" d="M170.69 280.761L166.976 289.141L155.777 284.194L158.631 276.212L170.69 280.761Z" fill="black"/>
<path d="M246.64 174.451C251.233 182.26 245.616 188.847 240.923 212.186L210.644 212.267C211.133 199.692 211.079 189.526 205.716 164.784C205.576 164.174 205.577 163.541 205.716 162.931C205.856 162.322 206.132 161.752 206.523 161.264C206.915 160.776 207.411 160.383 207.976 160.114C208.54 159.845 209.158 159.707 209.783 159.71C212.284 159.71 215.428 159.792 218.626 160.118C223.67 160.53 228.68 161.29 233.62 162.392C236.299 163.038 238.933 163.861 241.503 164.856C243.061 165.382 244.936 169.622 246.64 174.451Z" fill="#263238"/>
<path d="M242.048 213.762C242.048 213.762 259.053 262.93 258.645 286.577C258.41 300.122 257.386 325.363 253.3 343.111C249.966 357.607 236.376 366.849 236.376 366.849L225.504 366.205C225.504 366.205 219.615 344.099 220.639 335.302C222.677 317.789 228.72 304.633 227.986 288.552C226.827 262.224 219.035 213.354 219.035 213.354L242.048 213.762Z" fill="#5F08B1"/>
<path d="M223.32 369.041L238.677 369.947L240.072 365.336L222.912 363.75L223.32 369.041Z" fill="#263238"/>
<path opacity="0.2" d="M225.258 313.096C225.258 313.096 225.258 313.005 225.348 313.014C234.997 313.92 241.656 300.031 240.071 281.014L234.952 232.543L225.258 313.096Z" fill="black"/>
<path d="M234.418 213.354C234.418 213.354 247.935 299.814 219.831 309.544C205 315.162 192.524 309.073 177.748 302.532C169.204 298.754 158.531 288.525 158.531 288.525L162.635 277.354C170.017 275.358 177.741 274.969 185.285 276.213C199.691 278.441 200.298 282.555 205.417 279.447C216.18 252.847 197.661 231.819 210.246 213.309L234.418 213.354Z" fill="#5F08B1"/>
<path d="M163.442 275.234L157.951 289.721L161.992 292.81L168.515 275.569L163.442 275.234Z" fill="#263238"/>
<path d="M161.177 197.11C159.809 199.13 152.869 197.762 152.869 197.762L151.393 189.164L159.918 192.58L161.177 197.11Z" fill="#FFB573"/>
<path d="M153.115 188.72L154.437 197.653L149.318 198.414C149.041 198.44 148.764 198.361 148.541 198.194C148.319 198.026 148.166 197.782 148.113 197.508L146.147 191.166C146.114 191.019 146.139 190.864 146.216 190.734C146.294 190.604 146.418 190.509 146.564 190.469L153.115 188.72Z" fill="#FFB573"/>
<path d="M150.822 192.77L153.739 193.286L156.503 191.211L155.434 190.45C154.709 189.934 154.2 189.17 154.002 188.303C153.797 187.395 153.672 186.47 153.631 185.54V185.232C153.596 184.959 153.473 184.704 153.279 184.508C153.086 184.312 152.834 184.184 152.562 184.145L151.837 184.679C151.384 185.667 151.71 186.817 151.656 187.587L151.538 189.082L150.369 189.59L150.822 192.77Z" fill="#FFB573"/>
<path d="M207.174 163.08L190.032 186.636L158.549 192.851V198.015C158.549 198.015 188.139 200.208 194.789 196.339C201.439 192.471 212.592 169.005 212.592 169.005L207.174 163.08Z" fill="#FFB573"/>
<path d="M206.976 117.78C199.783 115.37 191.438 119.837 188.15 126.668C184.861 133.499 186.011 141.88 189.717 148.494C190.831 150.496 192.163 152.38 193.078 154.473C194.095 156.548 194.318 158.923 193.703 161.15C192.961 163.316 192.199 164.702 189.518 164.358C189.518 164.358 189.518 162.872 190.541 163.053C190.541 163.053 188.367 164.258 187.515 163.47C188.503 164.992 191.139 164.439 191.982 162.827C193.241 160.426 190.922 157.173 188.204 157.2C185.486 157.227 183.275 159.982 183.366 162.691C183.479 164.046 183.961 165.344 184.76 166.444C185.558 167.544 186.643 168.405 187.896 168.933C187.162 169.054 186.408 168.929 185.752 168.576C185.097 168.224 184.576 167.664 184.272 166.985C185.504 170.21 189.527 171.633 192.924 170.999C196.322 170.364 199.194 168.19 201.857 165.988C205.481 163.017 209.187 159.257 209.105 154.609C209.024 151.139 206.795 148.158 204.92 145.232C203.044 142.306 201.404 138.736 202.6 135.483C203.606 132.72 206.342 131.053 208.752 129.368C210.492 128.163 214.025 125.472 213.608 122.926C213.182 120.498 209.015 118.46 206.976 117.78Z" fill="#263238"/>
<path d="M190.767 198.414L186.02 185.848L187.107 185.939C187.986 186.012 188.869 185.831 189.648 185.417C190.427 185.002 191.07 184.372 191.501 183.601C195.125 177.15 204.484 160.779 207.12 159.964C210.88 158.849 214.749 161.857 216.18 166.306C217.258 169.576 206.214 183.601 201.123 191.574C196.602 198.632 190.767 198.414 190.767 198.414Z" fill="#263238"/>
<path d="M144.462 284.43V284.53C144.529 284.704 144.639 284.858 144.781 284.979C144.924 285.099 145.095 285.182 145.278 285.218C145.388 285.253 145.504 285.258 145.617 285.234C145.73 285.211 145.834 285.158 145.921 285.082C146.682 284.385 146.193 281.458 146.147 281.168C146.142 281.131 146.126 281.096 146.1 281.068C146.074 281.04 146.04 281.022 146.002 281.014C145.967 281.01 145.932 281.014 145.898 281.027C145.865 281.04 145.836 281.06 145.812 281.087C145.196 281.957 144.218 283.506 144.462 284.43ZM145.858 281.712C146.021 282.872 146.093 284.43 145.667 284.81C145.623 284.835 145.573 284.848 145.522 284.848C145.472 284.848 145.422 284.835 145.377 284.81C145.256 284.788 145.142 284.734 145.047 284.655C144.951 284.576 144.878 284.473 144.834 284.357C144.671 283.868 145.015 282.872 145.858 281.694V281.712Z" fill="#5F08B1"/>
<path d="M145.866 281.549C146.101 282.527 147.025 284.194 147.841 284.394C147.989 284.424 148.144 284.402 148.279 284.333C148.414 284.264 148.521 284.151 148.584 284.013C148.655 283.884 148.696 283.741 148.706 283.593C148.715 283.446 148.692 283.299 148.638 283.161C148.267 282.038 146.128 281.114 146.038 281.069C146.009 281.053 145.976 281.044 145.943 281.044C145.91 281.044 145.877 281.053 145.848 281.069C145.821 281.09 145.8 281.118 145.788 281.15C145.775 281.181 145.771 281.216 145.775 281.25C145.797 281.352 145.828 281.452 145.866 281.549ZM148.33 283.361C148.349 283.441 148.351 283.524 148.337 283.605C148.323 283.685 148.293 283.763 148.249 283.832C148.131 284.049 148.013 284.049 147.922 284.031C147.37 283.922 146.527 282.554 146.255 281.603C146.953 281.956 148.067 282.618 148.303 283.306C148.297 283.324 148.297 283.343 148.303 283.361H148.33Z" fill="#5F08B1"/>
<path d="M210.535 210.736L209.693 213.68C209.584 213.907 209.847 214.142 210.227 214.133H241.484C241.783 214.133 242.028 213.979 242.046 213.798L242.336 210.854C242.336 210.654 242.1 210.473 241.774 210.482H211.061C210.959 210.474 210.856 210.494 210.764 210.538C210.671 210.583 210.593 210.651 210.535 210.736Z" fill="#5F08B1"/>
<path opacity="0.5" d="M210.535 210.736L209.693 213.68C209.584 213.907 209.847 214.142 210.227 214.133H241.484C241.783 214.133 242.028 213.979 242.046 213.798L242.336 210.854C242.336 210.654 242.1 210.473 241.774 210.482H211.061C210.959 210.474 210.856 210.494 210.764 210.538C210.671 210.583 210.593 210.651 210.535 210.736Z" fill="white"/>
<path d="M216.535 214.405H215.629C215.457 214.405 215.312 214.315 215.33 214.206L215.737 210.374C215.737 210.265 215.909 210.174 216.091 210.174H216.997C217.169 210.174 217.305 210.265 217.296 210.383L216.888 214.206C216.834 214.315 216.671 214.414 216.535 214.405Z" fill="#5F08B1"/>
<path d="M239.067 214.405H238.161C237.998 214.405 237.853 214.315 237.871 214.206L238.278 210.383C238.278 210.265 238.441 210.174 238.614 210.174H239.52C239.692 210.174 239.837 210.265 239.819 210.374L239.411 214.197C239.393 214.315 239.248 214.405 239.067 214.405Z" fill="#5F08B1"/>
<path d="M228.728 214.387H227.822C227.65 214.387 227.505 214.296 227.523 214.187L227.931 210.364C227.931 210.246 228.103 210.156 228.275 210.156H229.181C229.353 210.156 229.489 210.246 229.48 210.355L229.063 214.178C229.063 214.296 228.909 214.387 228.728 214.387Z" fill="#5F08B1"/>
<path d="M220.039 143.628C221 148.566 221.942 157.481 218.59 160.163C218.59 160.163 219.931 165.227 228.891 166.577C238.785 168.063 233.593 162.428 233.593 162.428C228.202 160.299 228.338 156.403 229.263 152.815L220.039 143.628Z" fill="#FFB573"/>
<path d="M218.626 160.118C223.407 160.421 228.159 161.081 232.841 162.093L239.618 164.113C240.823 166.541 238.848 171.533 233.176 172.485C233.176 172.485 218.889 174.451 214.676 159.737L218.626 160.118Z" fill="#FFB573"/>
<path opacity="0.2" d="M223.782 147.388L229.218 152.824C228.989 153.666 228.84 154.527 228.774 155.397C226.708 154.79 223.393 152.516 223.166 150.342C223.168 149.326 223.378 148.321 223.782 147.388Z" fill="black"/>
<path d="M213.988 137.395C216.416 145.06 217.268 148.358 222.242 151.375C229.653 155.905 238.55 151.266 238.459 143.039C238.387 135.628 234.446 124.34 226.029 123.107C224.179 122.83 222.289 123.031 220.538 123.691C218.787 124.35 217.235 125.447 216.028 126.877C214.821 128.306 214 130.02 213.643 131.857C213.286 133.693 213.405 135.59 213.988 137.368V137.395Z" fill="#FFB573"/>
<path d="M232.279 136.199C233.136 137.545 234.176 138.764 235.369 139.823C235.09 140.125 234.748 140.363 234.368 140.519C233.988 140.676 233.578 140.747 233.167 140.729L232.279 136.199Z" fill="#ED893E"/>
<path d="M231.42 144.824C231.726 144.79 232.03 144.73 232.326 144.643C232.349 144.638 232.371 144.628 232.39 144.614C232.41 144.6 232.426 144.583 232.439 144.562C232.451 144.542 232.46 144.52 232.464 144.496C232.468 144.473 232.467 144.449 232.462 144.425C232.449 144.378 232.418 144.337 232.376 144.312C232.334 144.286 232.283 144.278 232.235 144.29C231.462 144.503 230.649 144.532 229.863 144.375C229.076 144.217 228.337 143.878 227.705 143.384C227.668 143.346 227.617 143.326 227.565 143.326C227.512 143.326 227.462 143.346 227.424 143.384C227.406 143.401 227.392 143.422 227.382 143.446C227.372 143.469 227.367 143.494 227.367 143.519C227.367 143.545 227.372 143.57 227.382 143.593C227.392 143.616 227.406 143.638 227.424 143.655C227.981 144.103 228.62 144.437 229.306 144.637C229.991 144.838 230.71 144.901 231.42 144.824Z" fill="#263238"/>
<path d="M211.351 122.093C210.352 122.739 209.524 123.615 208.934 124.647C208.344 125.68 208.011 126.839 207.962 128.027C207.921 128.481 207.993 128.939 208.171 129.359C208.26 129.567 208.403 129.747 208.584 129.883C208.765 130.018 208.979 130.103 209.204 130.129C209.892 130.129 210.4 129.513 210.78 128.933L212.538 126.215C213.261 125.332 213.87 124.361 214.35 123.325C214.939 121.54 212.429 121.404 211.351 122.093Z" fill="#5F08B1"/>
<path d="M212.213 123.896C207.402 129.458 205.246 144.851 219.343 149.146C221.699 147.279 217.893 143.882 216.281 139.587C215.221 136.779 220.593 131.533 222.686 129.377C224.779 127.221 226.709 124.113 229.662 124.611C230.412 124.862 231.219 124.884 231.982 124.675C234.328 123.615 233.187 122.21 231.982 121.232C230.134 119.864 227.933 119.053 225.64 118.894C223.165 118.603 220.657 118.905 218.323 119.774C215.988 120.644 213.894 122.056 212.213 123.896Z" fill="#263238"/>
<path d="M227.86 122.029C233.522 126.75 226.048 126.867 222.088 129.857C218.292 132.729 220.956 137.431 214.532 139.615C209.287 141.146 208.073 140.222 206.623 139.207C208.419 138.896 210.063 138 211.297 136.658C212.531 135.316 213.286 133.603 213.445 131.787C213.889 128.344 221.391 116.557 227.86 122.029Z" fill="#263238"/>
<path d="M213.137 143.837C214.024 145.115 215.378 145.993 216.906 146.283C218.935 146.636 219.715 144.779 219.017 142.967C218.356 141.336 216.516 139.189 214.55 139.651C213.874 139.826 213.295 140.262 212.94 140.863C212.585 141.464 212.483 142.182 212.657 142.858C212.749 143.214 212.913 143.546 213.137 143.837Z" fill="#FFB573"/>
<path d="M226.889 122.51C227.985 125.3 231.147 124.929 233.485 127.846C234.925 129.658 237.752 124.068 233.901 121.866C230.051 119.665 225.167 118.143 226.889 122.51Z" fill="#263238"/>
<path d="M223.555 134.288C223.635 134.296 223.716 134.279 223.786 134.238C223.857 134.198 223.912 134.135 223.944 134.061C224.687 132.412 226.916 131.995 226.934 131.995C227.033 131.974 227.121 131.914 227.178 131.83C227.235 131.746 227.258 131.643 227.242 131.542C227.222 131.444 227.165 131.358 227.081 131.302C226.998 131.246 226.896 131.225 226.798 131.243C226.68 131.243 224.143 131.778 223.237 133.771C223.197 133.864 223.194 133.969 223.23 134.063C223.265 134.158 223.336 134.235 223.428 134.279H223.555V134.288Z" fill="#263238"/>
<path d="M235.333 130.954C235.4 130.958 235.466 130.945 235.525 130.914C235.584 130.884 235.634 130.838 235.668 130.781C235.697 130.741 235.718 130.695 235.728 130.646C235.739 130.597 235.74 130.547 235.73 130.497C235.721 130.448 235.702 130.402 235.674 130.36C235.646 130.319 235.611 130.283 235.569 130.256C235.067 129.908 234.489 129.686 233.883 129.609C233.278 129.532 232.663 129.601 232.09 129.812C232.042 129.831 231.999 129.859 231.963 129.895C231.926 129.931 231.898 129.974 231.879 130.022C231.861 130.07 231.852 130.121 231.854 130.172C231.856 130.223 231.868 130.273 231.89 130.319C231.93 130.412 232.005 130.484 232.098 130.522C232.192 130.559 232.296 130.558 232.389 130.519C232.839 130.361 233.321 130.314 233.794 130.38C234.267 130.446 234.717 130.624 235.107 130.899C235.177 130.933 235.255 130.952 235.333 130.954Z" fill="#263238"/>
<path d="M272.579 180.548L267.269 183.565L261.752 195.433C261.752 195.433 267.079 198.822 271.283 196.077C275.487 193.332 272.579 180.548 272.579 180.548Z" fill="#5F08B1"/>
<path opacity="0.5" d="M272.579 180.548L267.269 183.565L261.752 195.433C261.752 195.433 267.079 198.822 271.283 196.077C275.487 193.332 272.579 180.548 272.579 180.548Z" fill="white"/>
<path d="M179.741 184.217L186.019 186.029L191.972 198.342C191.972 198.342 187.188 202.772 182.006 198.541C178.128 195.334 179.741 184.217 179.741 184.217Z" fill="#5F08B1"/>
<g opacity="0.5">
<path d="M179.741 184.217L186.019 186.029L191.972 198.342C191.972 198.342 187.188 202.772 182.006 198.541C178.128 195.334 179.741 184.217 179.741 184.217Z" fill="white"/>
</g>
<path d="M234.971 134.025C235.406 133.943 235.877 134.433 235.977 135.103C236.076 135.774 235.832 136.39 235.397 136.462C234.962 136.535 234.491 136.054 234.391 135.384C234.292 134.714 234.536 134.088 234.971 134.025Z" fill="#263238"/>
<path d="M236.312 133.363L234.781 134.115C235.705 134.768 236.312 133.363 236.312 133.363Z" fill="#263238"/>
<path d="M227.406 135.583C227.841 135.502 228.312 135.991 228.411 136.661C228.511 137.332 228.266 137.948 227.832 138.02C227.397 138.093 226.926 137.613 226.826 136.942C226.726 136.272 226.953 135.665 227.406 135.583Z" fill="#263238"/>
<path d="M228.728 134.922L227.197 135.674C228.121 136.326 228.728 134.922 228.728 134.922Z" fill="#263238"/>
<path d="M189.046 170.246C188.193 170.251 187.347 170.091 186.555 169.775C183.746 168.625 182.442 165.707 182.931 161.757C182.947 161.638 183.009 161.531 183.104 161.458C183.199 161.385 183.319 161.352 183.438 161.368C183.498 161.374 183.555 161.393 183.607 161.422C183.659 161.452 183.705 161.491 183.741 161.538C183.777 161.586 183.804 161.64 183.819 161.698C183.834 161.756 183.837 161.816 183.828 161.875C183.357 165.381 184.462 167.954 186.863 168.933C188.256 169.41 189.765 169.433 191.173 169.001C192.581 168.568 193.815 167.7 194.7 166.523C196.974 163.497 196.231 159.202 192.689 154.745C183.411 143.103 184.027 136.915 185.341 132.022C187.243 124.919 192.815 116.783 208.58 118.351C208.7 118.363 208.81 118.422 208.887 118.515C208.963 118.609 208.999 118.729 208.987 118.849C208.975 118.969 208.916 119.08 208.823 119.156C208.729 119.233 208.609 119.269 208.489 119.257C193.368 117.753 188.023 125.508 186.211 132.267C184.906 137.159 184.399 142.876 193.395 154.192C198.831 161.014 196.63 165.481 195.425 167.075C194.671 168.052 193.705 168.845 192.6 169.394C191.495 169.943 190.28 170.235 189.046 170.246Z" fill="#263238"/>
</svg>
