<svg width="48" height="49" viewBox="0 0 48 49" fill="none" xmlns="http://www.w3.org/2000/svg">
<path d="M0.34995 18.785C0.54426 16.1978 1.0106 13.689 1.71012 11.1802C2.17647 9.53382 2.83712 8.00502 3.73095 6.55462C5.63519 3.57542 8.3944 1.92902 11.7754 1.18422C16.7886 0.0866176 21.8795 -0.109382 26.9705 0.0474175C30.4292 0.165018 33.8102 0.674618 37.0746 1.77222C39.9893 2.75222 42.5542 4.28102 44.303 6.90742C45.5077 8.71062 46.0518 10.749 46.4792 12.8266C47.4897 18.0794 47.5285 23.3714 47.2953 28.6634C47.2565 29.6826 47.101 30.7018 47.0233 31.7602C46.9456 31.8386 46.8679 31.917 46.9456 32.0346C46.4792 35.8762 45.702 39.6002 43.4869 42.8538C41.5826 45.637 38.9011 47.0874 35.7144 47.793C30.779 48.8906 25.7658 49.1258 20.7137 48.9298C17.5659 48.8122 14.4569 48.5378 11.3868 47.7538C8.16123 46.9698 5.40202 45.441 3.38119 42.697C2.05988 40.8546 1.39923 38.777 1.0106 36.5818C-0.0386713 31.1722 -0.19412 25.645 0.194501 20.1178C0.194501 19.765 0.194501 19.373 0.311087 19.0202C0.427674 18.9418 0.388812 18.8634 0.311087 18.785H0.34995Z" fill="#5F08B1"/>
<path d="M16.6391 20.7329C17.1832 18.6553 17.7661 16.7345 18.6599 14.8921C19.0874 13.9905 19.5926 13.0889 20.2921 12.3441C21.8855 10.6193 23.7897 10.5409 25.4608 12.1873C26.8598 13.5593 27.7148 15.2841 28.5309 17.0481C28.8806 17.7929 29.1915 18.5377 29.4247 19.2825C29.5802 19.7921 29.8522 20.0665 30.3963 20.1841C31.5233 20.4585 32.5725 20.8897 33.5052 21.6345C34.0104 22.0657 34.3602 22.5361 34.3991 23.2025C34.3991 23.5945 34.3991 23.9865 34.1659 24.3001C32.0673 27.9065 29.9688 31.5521 27.8702 35.1585C27.7536 35.3545 27.6371 35.5505 27.4428 35.6681C25.4608 37.2361 23.2456 37.7849 20.7973 36.9225C19.5926 36.5305 18.7765 35.6681 18.1936 34.4921C16.2116 30.2977 14.1908 26.1033 12.2088 21.9089C11.7425 20.8897 12.0534 20.1841 13.1804 19.9881C14.3851 19.7529 15.551 19.7529 16.6002 20.6937L16.6391 20.7329Z" fill="white"/>
<path d="M29.7611 27.1675C29.7611 27.4419 29.6834 27.7163 29.528 27.9907C27.9735 30.6171 26.419 33.2827 24.8645 35.9483C24.6314 36.3403 24.3593 36.6539 23.893 36.6539C23.4266 36.6539 23.1935 36.3011 22.9991 35.8699C21.4058 32.5379 19.8125 29.2451 18.2191 25.9523C17.9859 25.4819 17.9471 25.0899 18.0637 24.5803C18.6466 22.1891 19.2684 19.8371 20.3565 17.6419C20.7063 16.8971 21.1338 16.2307 21.6778 15.6427C22.4551 14.8195 23.1546 14.7803 24.0096 15.5643C24.5536 16.0347 24.9811 16.6227 25.3697 17.2107C26.2247 18.5435 26.8465 19.9939 27.4294 21.4835C27.546 21.7579 27.546 21.8755 27.1962 21.8755C25.1366 21.8755 23.31 22.5811 21.639 23.7571C20.8229 24.3059 20.0845 24.8939 19.3461 25.5603C18.9575 25.9131 18.9964 26.4227 19.4627 26.6579C19.9679 26.8931 20.3954 27.0499 20.9783 26.5795C22.8826 25.1683 24.9811 24.3451 27.3906 25.0899C27.9735 25.2859 28.5176 25.5211 29.0228 25.8739C29.4502 26.1875 29.6834 26.6579 29.7223 27.2067L29.7611 27.1675Z" fill="#5F08B1"/>
</svg>
